<?xml version="1.0" encoding="utf-8" standalone="no"?>
<!DOCTYPE svg PUBLIC "-//W3C//DTD SVG 1.1//EN"
  "http://www.w3.org/Graphics/SVG/1.1/DTD/svg11.dtd">
<svg xmlns:xlink="http://www.w3.org/1999/xlink" width="460.8pt" height="345.6pt" viewBox="0 0 460.8 345.6" xmlns="http://www.w3.org/2000/svg" version="1.1">
 <metadata>
  <rdf:RDF xmlns:dc="http://purl.org/dc/elements/1.1/" xmlns:cc="http://creativecommons.org/ns#" xmlns:rdf="http://www.w3.org/1999/02/22-rdf-syntax-ns#">
   <cc:Work>
    <dc:type rdf:resource="http://purl.org/dc/dcmitype/StillImage"/>
    <dc:date>2025-09-18T16:57:44.661103</dc:date>
    <dc:format>image/svg+xml</dc:format>
    <dc:creator>
     <cc:Agent>
      <dc:title>Matplotlib v3.9.4, https://matplotlib.org/</dc:title>
     </cc:Agent>
    </dc:creator>
   </cc:Work>
  </rdf:RDF>
 </metadata>
 <defs>
  <style type="text/css">*{stroke-linejoin: round; stroke-linecap: butt}</style>
 </defs>
 <g id="figure_1">
  <g id="patch_1">
   <path d="M 0 345.6 
L 460.8 345.6 
L 460.8 0 
L 0 0 
z
" style="fill: #ffffff"/>
  </g>
  <g id="axes_1">
   <g id="patch_2">
    <path d="M 57.6 307.584 
L 414.72 307.584 
L 414.72 41.472 
L 57.6 41.472 
z
" style="fill: #ffffff"/>
   </g>
   <g id="matplotlib.axis_1">
    <g id="xtick_1">
     <g id="line2d_1">
      <defs>
       <path id="m542c271d0e" d="M 0 0 
L 0 3.5 
" style="stroke: #000000; stroke-width: 0.8"/>
      </defs>
      <g>
       <use xlink:href="#m542c271d0e" x="73.832727" y="307.584" style="stroke: #000000; stroke-width: 0.8"/>
      </g>
     </g>
     <g id="text_1">
      <!-- 0 -->
      <g transform="translate(70.651477 322.182437) scale(0.1 -0.1)">
       <defs>
        <path id="DejaVuSans-30" d="M 2034 4250 
Q 1547 4250 1301 3770 
Q 1056 3291 1056 2328 
Q 1056 1369 1301 889 
Q 1547 409 2034 409 
Q 2525 409 2770 889 
Q 3016 1369 3016 2328 
Q 3016 3291 2770 3770 
Q 2525 4250 2034 4250 
z
M 2034 4750 
Q 2819 4750 3233 4129 
Q 3647 3509 3647 2328 
Q 3647 1150 3233 529 
Q 2819 -91 2034 -91 
Q 1250 -91 836 529 
Q 422 1150 422 2328 
Q 422 3509 836 4129 
Q 1250 4750 2034 4750 
z
" transform="scale(0.015625)"/>
       </defs>
       <use xlink:href="#DejaVuSans-30"/>
      </g>
     </g>
    </g>
    <g id="xtick_2">
     <g id="line2d_2">
      <g>
       <use xlink:href="#m542c271d0e" x="114.618474" y="307.584" style="stroke: #000000; stroke-width: 0.8"/>
      </g>
     </g>
     <g id="text_2">
      <!-- 25 -->
      <g transform="translate(108.255974 322.182437) scale(0.1 -0.1)">
       <defs>
        <path id="DejaVuSans-32" d="M 1228 531 
L 3431 531 
L 3431 0 
L 469 0 
L 469 531 
Q 828 903 1448 1529 
Q 2069 2156 2228 2338 
Q 2531 2678 2651 2914 
Q 2772 3150 2772 3378 
Q 2772 3750 2511 3984 
Q 2250 4219 1831 4219 
Q 1534 4219 1204 4116 
Q 875 4013 500 3803 
L 500 4441 
Q 881 4594 1212 4672 
Q 1544 4750 1819 4750 
Q 2544 4750 2975 4387 
Q 3406 4025 3406 3419 
Q 3406 3131 3298 2873 
Q 3191 2616 2906 2266 
Q 2828 2175 2409 1742 
Q 1991 1309 1228 531 
z
" transform="scale(0.015625)"/>
        <path id="DejaVuSans-35" d="M 691 4666 
L 3169 4666 
L 3169 4134 
L 1269 4134 
L 1269 2991 
Q 1406 3038 1543 3061 
Q 1681 3084 1819 3084 
Q 2600 3084 3056 2656 
Q 3513 2228 3513 1497 
Q 3513 744 3044 326 
Q 2575 -91 1722 -91 
Q 1428 -91 1123 -41 
Q 819 9 494 109 
L 494 744 
Q 775 591 1075 516 
Q 1375 441 1709 441 
Q 2250 441 2565 725 
Q 2881 1009 2881 1497 
Q 2881 1984 2565 2268 
Q 2250 2553 1709 2553 
Q 1456 2553 1204 2497 
Q 953 2441 691 2322 
L 691 4666 
z
" transform="scale(0.015625)"/>
       </defs>
       <use xlink:href="#DejaVuSans-32"/>
       <use xlink:href="#DejaVuSans-35" x="63.623047"/>
      </g>
     </g>
    </g>
    <g id="xtick_3">
     <g id="line2d_3">
      <g>
       <use xlink:href="#m542c271d0e" x="155.404221" y="307.584" style="stroke: #000000; stroke-width: 0.8"/>
      </g>
     </g>
     <g id="text_3">
      <!-- 50 -->
      <g transform="translate(149.041721 322.182437) scale(0.1 -0.1)">
       <use xlink:href="#DejaVuSans-35"/>
       <use xlink:href="#DejaVuSans-30" x="63.623047"/>
      </g>
     </g>
    </g>
    <g id="xtick_4">
     <g id="line2d_4">
      <g>
       <use xlink:href="#m542c271d0e" x="196.189968" y="307.584" style="stroke: #000000; stroke-width: 0.8"/>
      </g>
     </g>
     <g id="text_4">
      <!-- 75 -->
      <g transform="translate(189.827468 322.182437) scale(0.1 -0.1)">
       <defs>
        <path id="DejaVuSans-37" d="M 525 4666 
L 3525 4666 
L 3525 4397 
L 1831 0 
L 1172 0 
L 2766 4134 
L 525 4134 
L 525 4666 
z
" transform="scale(0.015625)"/>
       </defs>
       <use xlink:href="#DejaVuSans-37"/>
       <use xlink:href="#DejaVuSans-35" x="63.623047"/>
      </g>
     </g>
    </g>
    <g id="xtick_5">
     <g id="line2d_5">
      <g>
       <use xlink:href="#m542c271d0e" x="236.975715" y="307.584" style="stroke: #000000; stroke-width: 0.8"/>
      </g>
     </g>
     <g id="text_5">
      <!-- 100 -->
      <g transform="translate(227.431965 322.182437) scale(0.1 -0.1)">
       <defs>
        <path id="DejaVuSans-31" d="M 794 531 
L 1825 531 
L 1825 4091 
L 703 3866 
L 703 4441 
L 1819 4666 
L 2450 4666 
L 2450 531 
L 3481 531 
L 3481 0 
L 794 0 
L 794 531 
z
" transform="scale(0.015625)"/>
       </defs>
       <use xlink:href="#DejaVuSans-31"/>
       <use xlink:href="#DejaVuSans-30" x="63.623047"/>
       <use xlink:href="#DejaVuSans-30" x="127.246094"/>
      </g>
     </g>
    </g>
    <g id="xtick_6">
     <g id="line2d_6">
      <g>
       <use xlink:href="#m542c271d0e" x="277.761462" y="307.584" style="stroke: #000000; stroke-width: 0.8"/>
      </g>
     </g>
     <g id="text_6">
      <!-- 125 -->
      <g transform="translate(268.217712 322.182437) scale(0.1 -0.1)">
       <use xlink:href="#DejaVuSans-31"/>
       <use xlink:href="#DejaVuSans-32" x="63.623047"/>
       <use xlink:href="#DejaVuSans-35" x="127.246094"/>
      </g>
     </g>
    </g>
    <g id="xtick_7">
     <g id="line2d_7">
      <g>
       <use xlink:href="#m542c271d0e" x="318.547209" y="307.584" style="stroke: #000000; stroke-width: 0.8"/>
      </g>
     </g>
     <g id="text_7">
      <!-- 150 -->
      <g transform="translate(309.003459 322.182437) scale(0.1 -0.1)">
       <use xlink:href="#DejaVuSans-31"/>
       <use xlink:href="#DejaVuSans-35" x="63.623047"/>
       <use xlink:href="#DejaVuSans-30" x="127.246094"/>
      </g>
     </g>
    </g>
    <g id="xtick_8">
     <g id="line2d_8">
      <g>
       <use xlink:href="#m542c271d0e" x="359.332956" y="307.584" style="stroke: #000000; stroke-width: 0.8"/>
      </g>
     </g>
     <g id="text_8">
      <!-- 175 -->
      <g transform="translate(349.789206 322.182437) scale(0.1 -0.1)">
       <use xlink:href="#DejaVuSans-31"/>
       <use xlink:href="#DejaVuSans-37" x="63.623047"/>
       <use xlink:href="#DejaVuSans-35" x="127.246094"/>
      </g>
     </g>
    </g>
    <g id="xtick_9">
     <g id="line2d_9">
      <g>
       <use xlink:href="#m542c271d0e" x="400.118703" y="307.584" style="stroke: #000000; stroke-width: 0.8"/>
      </g>
     </g>
     <g id="text_9">
      <!-- 200 -->
      <g transform="translate(390.574953 322.182437) scale(0.1 -0.1)">
       <use xlink:href="#DejaVuSans-32"/>
       <use xlink:href="#DejaVuSans-30" x="63.623047"/>
       <use xlink:href="#DejaVuSans-30" x="127.246094"/>
      </g>
     </g>
    </g>
   </g>
   <g id="matplotlib.axis_2">
    <g id="ytick_1">
     <g id="line2d_10">
      <defs>
       <path id="m73eddec491" d="M 0 0 
L -3.5 0 
" style="stroke: #000000; stroke-width: 0.8"/>
      </defs>
      <g>
       <use xlink:href="#m73eddec491" x="57.6" y="278.190243" style="stroke: #000000; stroke-width: 0.8"/>
      </g>
     </g>
     <g id="text_10">
      <!-- −2 -->
      <g transform="translate(35.857813 281.989461) scale(0.1 -0.1)">
       <defs>
        <path id="DejaVuSans-2212" d="M 678 2272 
L 4684 2272 
L 4684 1741 
L 678 1741 
L 678 2272 
z
" transform="scale(0.015625)"/>
       </defs>
       <use xlink:href="#DejaVuSans-2212"/>
       <use xlink:href="#DejaVuSans-32" x="83.789062"/>
      </g>
     </g>
    </g>
    <g id="ytick_2">
     <g id="line2d_11">
      <g>
       <use xlink:href="#m73eddec491" x="57.6" y="227.228427" style="stroke: #000000; stroke-width: 0.8"/>
      </g>
     </g>
     <g id="text_11">
      <!-- −1 -->
      <g transform="translate(35.857813 231.027646) scale(0.1 -0.1)">
       <use xlink:href="#DejaVuSans-2212"/>
       <use xlink:href="#DejaVuSans-31" x="83.789062"/>
      </g>
     </g>
    </g>
    <g id="ytick_3">
     <g id="line2d_12">
      <g>
       <use xlink:href="#m73eddec491" x="57.6" y="176.266612" style="stroke: #000000; stroke-width: 0.8"/>
      </g>
     </g>
     <g id="text_12">
      <!-- 0 -->
      <g transform="translate(44.2375 180.06583) scale(0.1 -0.1)">
       <use xlink:href="#DejaVuSans-30"/>
      </g>
     </g>
    </g>
    <g id="ytick_4">
     <g id="line2d_13">
      <g>
       <use xlink:href="#m73eddec491" x="57.6" y="125.304796" style="stroke: #000000; stroke-width: 0.8"/>
      </g>
     </g>
     <g id="text_13">
      <!-- 1 -->
      <g transform="translate(44.2375 129.104015) scale(0.1 -0.1)">
       <use xlink:href="#DejaVuSans-31"/>
      </g>
     </g>
    </g>
    <g id="ytick_5">
     <g id="line2d_14">
      <g>
       <use xlink:href="#m73eddec491" x="57.6" y="74.342981" style="stroke: #000000; stroke-width: 0.8"/>
      </g>
     </g>
     <g id="text_14">
      <!-- 2 -->
      <g transform="translate(44.2375 78.142199) scale(0.1 -0.1)">
       <use xlink:href="#DejaVuSans-32"/>
      </g>
     </g>
    </g>
   </g>
   <g id="line2d_15">
    <path d="M 73.832727 204.919386 
L 75.464157 201.013816 
L 77.095587 188.868399 
L 78.727017 167.138781 
L 80.358447 127.301487 
L 81.989877 97.643101 
L 83.621307 96.699471 
L 85.252736 94.554917 
L 86.884166 175.123134 
L 88.515596 108.668881 
L 90.147026 53.568 
L 91.778456 80.675996 
L 93.409886 77.745706 
L 95.041316 64.695028 
L 96.672746 59.086146 
L 98.304175 70.227464 
L 99.935605 88.365941 
L 101.567035 77.724942 
L 103.198465 131.966982 
L 104.829895 173.323353 
L 106.461325 110.037384 
L 108.092755 151.84524 
L 109.724185 122.000997 
L 111.355614 87.649511 
L 112.987044 75.923618 
L 114.618474 111.004562 
L 116.249904 94.740946 
L 117.881334 141.54641 
L 119.512764 131.120147 
L 121.144194 103.140599 
L 122.775624 121.708376 
L 124.407053 209.721617 
L 126.038483 238.151125 
L 127.669913 236.2997 
L 129.301343 187.427361 
L 132.564203 193.144077 
L 134.195633 233.167257 
L 135.827063 207.67185 
L 137.458492 280.295318 
L 139.089922 232.940368 
L 140.721352 202.894887 
L 142.352782 241.985188 
L 143.984212 189.624082 
L 145.615642 227.336053 
L 148.878502 212.883487 
L 150.509931 206.294056 
L 153.772791 153.226382 
L 155.404221 183.212912 
L 157.035651 255.619163 
L 158.667081 188.362272 
L 161.929941 186.364752 
L 163.56137 201.750125 
L 165.1928 143.882161 
L 166.82423 223.376991 
L 168.45566 216.638824 
L 170.08709 252.183957 
L 171.71852 219.694496 
L 174.98138 163.728595 
L 176.61281 192.633487 
L 178.244239 194.269855 
L 179.875669 171.412983 
L 181.507099 203.265905 
L 183.138529 223.253284 
L 184.769959 191.015447 
L 186.401389 215.38972 
L 188.032819 175.109023 
L 189.664249 178.663037 
L 191.295678 177.470042 
L 192.927108 175.378482 
L 194.558538 179.062337 
L 196.189968 165.057343 
L 197.821398 183.557896 
L 199.452828 236.689957 
L 201.084258 205.165842 
L 202.715688 223.656079 
L 204.347117 256.775673 
L 205.978547 209.756832 
L 207.609977 233.5302 
L 209.241407 276.360569 
L 210.872837 249.1278 
L 212.504267 269.084124 
L 215.767127 267.00466 
L 220.661416 291.15204 
L 222.292846 240.786274 
L 223.924276 238.105744 
L 225.555706 234.709645 
L 227.187136 253.60308 
L 228.818566 210.985194 
L 230.449995 207.273884 
L 232.081425 221.000584 
L 235.344285 232.840261 
L 236.975715 253.374396 
L 238.607145 236.453426 
L 240.238575 232.975175 
L 241.870005 217.303578 
L 243.501434 217.827403 
L 245.132864 177.091547 
L 246.764294 232.710859 
L 248.395724 191.514532 
L 250.027154 194.006832 
L 251.658584 153.886539 
L 253.290014 168.103868 
L 254.921444 157.573591 
L 256.552873 108.378334 
L 258.184303 111.550033 
L 259.815733 103.064674 
L 261.447163 125.390976 
L 263.078593 118.147868 
L 264.710023 175.150329 
L 266.341453 178.983951 
L 267.972883 151.695349 
L 269.604312 219.086351 
L 271.235742 187.73647 
L 272.867172 191.845016 
L 274.498602 179.881237 
L 276.130032 235.762276 
L 277.761462 270.75449 
L 279.392892 207.793533 
L 281.024322 222.940514 
L 282.655751 205.968864 
L 284.287181 158.840715 
L 285.918611 175.816268 
L 287.550041 233.841852 
L 289.181471 212.719292 
L 290.812901 186.696984 
L 295.70719 222.925172 
L 297.33862 168.252211 
L 298.97005 151.589765 
L 300.60148 221.528214 
L 302.23291 132.46537 
L 303.86434 189.145976 
L 305.49577 112.092781 
L 307.1272 183.839668 
L 308.75863 128.404692 
L 310.390059 165.509966 
L 312.021489 162.048514 
L 313.652919 134.133368 
L 315.284349 172.475434 
L 316.915779 150.667896 
L 318.547209 148.715215 
L 323.441498 57.706903 
L 325.072928 77.346215 
L 326.704358 70.566619 
L 328.335788 99.270471 
L 329.967218 119.615518 
L 331.598648 154.669754 
L 333.230078 147.692331 
L 336.492937 149.309645 
L 338.124367 133.036087 
L 339.755797 184.911421 
L 341.387227 111.946171 
L 343.018657 132.986278 
L 344.650087 102.767807 
L 346.281517 109.544401 
L 347.912947 143.329104 
L 349.544376 142.395326 
L 351.175806 243.629339 
L 352.807236 189.953876 
L 354.438666 202.051111 
L 356.070096 162.910861 
L 357.701526 232.384966 
L 359.332956 205.300422 
L 360.964386 215.621922 
L 362.595815 248.89084 
L 364.227245 272.180747 
L 365.858675 285.890037 
L 367.490105 237.030566 
L 369.121535 218.999575 
L 370.752965 270.85398 
L 372.384395 247.554751 
L 375.647254 224.063431 
L 378.910114 261.186715 
L 380.541544 295.488 
L 382.172974 239.634791 
L 383.804404 172.852231 
L 385.435834 207.016924 
L 387.067264 262.562995 
L 388.698693 203.269187 
L 390.330123 171.128331 
L 391.961553 145.214389 
L 393.592983 156.865052 
L 395.224413 140.536131 
L 396.855843 146.57534 
L 398.487273 126.729175 
L 398.487273 126.729175 
" clip-path="url(#pe3e2439309)" style="fill: none; stroke: #1f77b4; stroke-width: 1.5; stroke-linecap: square"/>
   </g>
   <g id="line2d_16">
    <path d="M 78.727017 191.456292 
L 80.358447 176.897641 
L 83.621307 123.117918 
L 85.252736 112.043097 
L 86.884166 107.823617 
L 88.515596 149.628762 
L 90.147026 132.699191 
L 91.778456 96.49 
L 93.409886 91.830045 
L 95.041316 91.077845 
L 96.672746 86.17972 
L 98.304175 79.990955 
L 99.935605 83.315883 
L 101.567035 94.834983 
L 103.198465 94.423973 
L 104.829895 122.308926 
L 106.461325 155.308883 
L 108.092755 136.641828 
L 109.724185 148.322887 
L 111.355614 135.945885 
L 112.987044 115.177212 
L 114.618474 98.337868 
L 116.249904 110.804619 
L 117.881334 109.051887 
L 119.512764 133.396198 
L 121.144194 136.927623 
L 122.775624 124.390906 
L 124.407053 126.813636 
L 126.038483 174.599956 
L 127.669913 211.277915 
L 129.301343 225.278822 
L 132.564203 201.909489 
L 134.195633 193.675114 
L 135.827063 211.280737 
L 137.458492 207.482827 
L 139.089922 243.798433 
L 140.721352 232.851866 
L 142.352782 213.374945 
L 143.984212 222.542517 
L 145.615642 200.930989 
L 148.878502 212.710345 
L 150.509931 208.562952 
L 153.772791 205.484618 
L 155.404221 174.675074 
L 157.035651 177.798273 
L 158.667081 217.524937 
L 161.929941 201.443437 
L 163.56137 192.195109 
L 165.1928 193.310323 
L 166.82423 166.158016 
L 168.45566 196.370282 
L 170.08709 205.20393 
L 171.71852 230.090393 
L 174.98138 220.391245 
L 176.61281 187.046118 
L 178.244239 186.431239 
L 179.875669 188.404067 
L 181.507099 179.555479 
L 183.138529 191.29666 
L 184.769959 206.802716 
L 186.401389 197.459053 
L 188.032819 204.923452 
L 189.664249 186.123096 
L 191.295678 181.240416 
L 192.927108 177.508817 
L 194.558538 176.483395 
L 196.189968 177.832081 
L 197.821398 171.095765 
L 199.452828 178.015301 
L 201.084258 208.793467 
L 202.715688 206.031754 
L 204.347117 213.778513 
L 205.978547 232.327091 
L 207.609977 216.883831 
L 209.241407 221.96077 
L 210.872837 245.309945 
L 212.504267 242.985552 
L 215.767127 251.475271 
L 220.661416 252.255965 
L 222.292846 266.424158 
L 223.924276 245.193584 
L 225.555706 234.726575 
L 227.187136 227.446343 
L 228.818566 236.356268 
L 230.449995 217.884437 
L 232.081425 208.119088 
L 235.344285 210.364607 
L 236.975715 219.339594 
L 238.607145 234.153122 
L 240.238575 231.0486 
L 241.870005 227.381385 
L 243.501434 216.708362 
L 245.132864 213.099249 
L 246.764294 190.268494 
L 248.395724 210.357 
L 250.027154 197.322538 
L 251.658584 194.705836 
L 253.290014 170.167761 
L 254.921444 168.807495 
L 256.552873 162.593251 
L 258.184303 135.710628 
L 259.815733 125.222266 
L 261.447163 116.703071 
L 263.078593 126.834744 
L 264.710023 127.254659 
L 266.341453 157.767144 
L 267.972883 171.983133 
L 269.604312 164.02694 
L 271.235742 193.672682 
L 272.867172 189.787092 
L 274.498602 191.391497 
L 276.130032 182.986112 
L 277.761462 210.072507 
L 279.392892 239.967289 
L 281.024322 220.189749 
L 282.655751 217.302164 
L 284.287181 205.693675 
L 285.918611 178.530673 
L 287.550041 175.146558 
L 289.181471 204.939775 
L 290.812901 208.609345 
L 295.70719 195.76987 
L 297.33862 206.887824 
L 298.97005 183.802717 
L 300.60148 166.177963 
L 302.23291 193.891994 
L 303.86434 161.254733 
L 305.49577 177.698358 
L 307.1272 141.352761 
L 308.75863 167.153746 
L 310.390059 146.755664 
L 312.021489 160.688813 
L 313.652919 161.887604 
L 315.284349 150.019991 
L 316.915779 163.535167 
L 318.547209 158.033391 
L 323.441498 155.790559 
L 325.072928 105.35856 
L 326.704358 94.900986 
L 328.335788 86.949282 
L 329.967218 102.419756 
L 331.598648 118.961177 
L 333.230078 144.791242 
L 336.492937 151.029242 
L 338.124367 153.702055 
L 339.755797 144.830555 
L 341.387227 168.592571 
L 343.018657 140.37255 
L 344.650087 139.958757 
L 346.281517 121.745058 
L 347.912947 120.51159 
L 349.544376 136.885419 
L 351.175806 144.698711 
L 352.807236 201.01866 
L 354.438666 195.606303 
L 356.070096 199.643632 
L 357.701526 176.584257 
L 359.332956 205.445072 
L 360.964386 203.124743 
L 362.595815 209.164969 
L 364.227245 226.373929 
L 365.858675 247.15707 
L 367.490105 262.86834 
L 370.752965 223.315307 
L 372.384395 241.770731 
L 375.647254 239.501766 
L 378.910114 226.902223 
L 380.541544 238.852703 
L 382.172974 263.019801 
L 383.804404 245.004756 
L 385.435834 200.560701 
L 387.067264 197.997403 
L 388.698693 228.469872 
L 390.330123 213.166486 
L 391.961553 188.227994 
L 393.592983 161.568017 
L 395.224413 158.712622 
L 396.855843 150.245563 
L 398.487273 150.85695 
L 398.487273 150.85695 
" clip-path="url(#pe3e2439309)" style="fill: none; stroke: #ff7f0e; stroke-width: 1.5; stroke-linecap: square"/>
   </g>
   <g id="patch_3">
    <path d="M 57.6 307.584 
L 57.6 41.472 
" style="fill: none; stroke: #000000; stroke-width: 0.8; stroke-linejoin: miter; stroke-linecap: square"/>
   </g>
   <g id="patch_4">
    <path d="M 414.72 307.584 
L 414.72 41.472 
" style="fill: none; stroke: #000000; stroke-width: 0.8; stroke-linejoin: miter; stroke-linecap: square"/>
   </g>
   <g id="patch_5">
    <path d="M 57.6 307.584 
L 414.72 307.584 
" style="fill: none; stroke: #000000; stroke-width: 0.8; stroke-linejoin: miter; stroke-linecap: square"/>
   </g>
   <g id="patch_6">
    <path d="M 57.6 41.472 
L 414.72 41.472 
" style="fill: none; stroke: #000000; stroke-width: 0.8; stroke-linejoin: miter; stroke-linecap: square"/>
   </g>
   <g id="legend_1">
    <g id="patch_7">
     <path d="M 194.956875 78.82825 
L 277.363125 78.82825 
Q 279.363125 78.82825 279.363125 76.82825 
L 279.363125 48.472 
Q 279.363125 46.472 277.363125 46.472 
L 194.956875 46.472 
Q 192.956875 46.472 192.956875 48.472 
L 192.956875 76.82825 
Q 192.956875 78.82825 194.956875 78.82825 
z
" style="fill: #ffffff; opacity: 0.8; stroke: #cccccc; stroke-linejoin: miter"/>
    </g>
    <g id="line2d_17">
     <path d="M 196.956875 54.570437 
L 206.956875 54.570437 
L 216.956875 54.570437 
" style="fill: none; stroke: #1f77b4; stroke-width: 1.5; stroke-linecap: square"/>
    </g>
    <g id="text_15">
     <!-- Original -->
     <g transform="translate(224.956875 58.070437) scale(0.1 -0.1)">
      <defs>
       <path id="DejaVuSans-4f" d="M 2522 4238 
Q 1834 4238 1429 3725 
Q 1025 3213 1025 2328 
Q 1025 1447 1429 934 
Q 1834 422 2522 422 
Q 3209 422 3611 934 
Q 4013 1447 4013 2328 
Q 4013 3213 3611 3725 
Q 3209 4238 2522 4238 
z
M 2522 4750 
Q 3503 4750 4090 4092 
Q 4678 3434 4678 2328 
Q 4678 1225 4090 567 
Q 3503 -91 2522 -91 
Q 1538 -91 948 565 
Q 359 1222 359 2328 
Q 359 3434 948 4092 
Q 1538 4750 2522 4750 
z
" transform="scale(0.015625)"/>
       <path id="DejaVuSans-72" d="M 2631 2963 
Q 2534 3019 2420 3045 
Q 2306 3072 2169 3072 
Q 1681 3072 1420 2755 
Q 1159 2438 1159 1844 
L 1159 0 
L 581 0 
L 581 3500 
L 1159 3500 
L 1159 2956 
Q 1341 3275 1631 3429 
Q 1922 3584 2338 3584 
Q 2397 3584 2469 3576 
Q 2541 3569 2628 3553 
L 2631 2963 
z
" transform="scale(0.015625)"/>
       <path id="DejaVuSans-69" d="M 603 3500 
L 1178 3500 
L 1178 0 
L 603 0 
L 603 3500 
z
M 603 4863 
L 1178 4863 
L 1178 4134 
L 603 4134 
L 603 4863 
z
" transform="scale(0.015625)"/>
       <path id="DejaVuSans-67" d="M 2906 1791 
Q 2906 2416 2648 2759 
Q 2391 3103 1925 3103 
Q 1463 3103 1205 2759 
Q 947 2416 947 1791 
Q 947 1169 1205 825 
Q 1463 481 1925 481 
Q 2391 481 2648 825 
Q 2906 1169 2906 1791 
z
M 3481 434 
Q 3481 -459 3084 -895 
Q 2688 -1331 1869 -1331 
Q 1566 -1331 1297 -1286 
Q 1028 -1241 775 -1147 
L 775 -588 
Q 1028 -725 1275 -790 
Q 1522 -856 1778 -856 
Q 2344 -856 2625 -561 
Q 2906 -266 2906 331 
L 2906 616 
Q 2728 306 2450 153 
Q 2172 0 1784 0 
Q 1141 0 747 490 
Q 353 981 353 1791 
Q 353 2603 747 3093 
Q 1141 3584 1784 3584 
Q 2172 3584 2450 3431 
Q 2728 3278 2906 2969 
L 2906 3500 
L 3481 3500 
L 3481 434 
z
" transform="scale(0.015625)"/>
       <path id="DejaVuSans-6e" d="M 3513 2113 
L 3513 0 
L 2938 0 
L 2938 2094 
Q 2938 2591 2744 2837 
Q 2550 3084 2163 3084 
Q 1697 3084 1428 2787 
Q 1159 2491 1159 1978 
L 1159 0 
L 581 0 
L 581 3500 
L 1159 3500 
L 1159 2956 
Q 1366 3272 1645 3428 
Q 1925 3584 2291 3584 
Q 2894 3584 3203 3211 
Q 3513 2838 3513 2113 
z
" transform="scale(0.015625)"/>
       <path id="DejaVuSans-61" d="M 2194 1759 
Q 1497 1759 1228 1600 
Q 959 1441 959 1056 
Q 959 750 1161 570 
Q 1363 391 1709 391 
Q 2188 391 2477 730 
Q 2766 1069 2766 1631 
L 2766 1759 
L 2194 1759 
z
M 3341 1997 
L 3341 0 
L 2766 0 
L 2766 531 
Q 2569 213 2275 61 
Q 1981 -91 1556 -91 
Q 1019 -91 701 211 
Q 384 513 384 1019 
Q 384 1609 779 1909 
Q 1175 2209 1959 2209 
L 2766 2209 
L 2766 2266 
Q 2766 2663 2505 2880 
Q 2244 3097 1772 3097 
Q 1472 3097 1187 3025 
Q 903 2953 641 2809 
L 641 3341 
Q 956 3463 1253 3523 
Q 1550 3584 1831 3584 
Q 2591 3584 2966 3190 
Q 3341 2797 3341 1997 
z
" transform="scale(0.015625)"/>
       <path id="DejaVuSans-6c" d="M 603 4863 
L 1178 4863 
L 1178 0 
L 603 0 
L 603 4863 
z
" transform="scale(0.015625)"/>
      </defs>
      <use xlink:href="#DejaVuSans-4f"/>
      <use xlink:href="#DejaVuSans-72" x="78.710938"/>
      <use xlink:href="#DejaVuSans-69" x="119.824219"/>
      <use xlink:href="#DejaVuSans-67" x="147.607422"/>
      <use xlink:href="#DejaVuSans-69" x="211.083984"/>
      <use xlink:href="#DejaVuSans-6e" x="238.867188"/>
      <use xlink:href="#DejaVuSans-61" x="302.246094"/>
      <use xlink:href="#DejaVuSans-6c" x="363.525391"/>
     </g>
    </g>
    <g id="line2d_18">
     <path d="M 196.956875 69.248562 
L 206.956875 69.248562 
L 216.956875 69.248562 
" style="fill: none; stroke: #ff7f0e; stroke-width: 1.5; stroke-linecap: square"/>
    </g>
    <g id="text_16">
     <!-- De-noised -->
     <g transform="translate(224.956875 72.748562) scale(0.1 -0.1)">
      <defs>
       <path id="DejaVuSans-44" d="M 1259 4147 
L 1259 519 
L 2022 519 
Q 2988 519 3436 956 
Q 3884 1394 3884 2338 
Q 3884 3275 3436 3711 
Q 2988 4147 2022 4147 
L 1259 4147 
z
M 628 4666 
L 1925 4666 
Q 3281 4666 3915 4102 
Q 4550 3538 4550 2338 
Q 4550 1131 3912 565 
Q 3275 0 1925 0 
L 628 0 
L 628 4666 
z
" transform="scale(0.015625)"/>
       <path id="DejaVuSans-65" d="M 3597 1894 
L 3597 1613 
L 953 1613 
Q 991 1019 1311 708 
Q 1631 397 2203 397 
Q 2534 397 2845 478 
Q 3156 559 3463 722 
L 3463 178 
Q 3153 47 2828 -22 
Q 2503 -91 2169 -91 
Q 1331 -91 842 396 
Q 353 884 353 1716 
Q 353 2575 817 3079 
Q 1281 3584 2069 3584 
Q 2775 3584 3186 3129 
Q 3597 2675 3597 1894 
z
M 3022 2063 
Q 3016 2534 2758 2815 
Q 2500 3097 2075 3097 
Q 1594 3097 1305 2825 
Q 1016 2553 972 2059 
L 3022 2063 
z
" transform="scale(0.015625)"/>
       <path id="DejaVuSans-2d" d="M 313 2009 
L 1997 2009 
L 1997 1497 
L 313 1497 
L 313 2009 
z
" transform="scale(0.015625)"/>
       <path id="DejaVuSans-6f" d="M 1959 3097 
Q 1497 3097 1228 2736 
Q 959 2375 959 1747 
Q 959 1119 1226 758 
Q 1494 397 1959 397 
Q 2419 397 2687 759 
Q 2956 1122 2956 1747 
Q 2956 2369 2687 2733 
Q 2419 3097 1959 3097 
z
M 1959 3584 
Q 2709 3584 3137 3096 
Q 3566 2609 3566 1747 
Q 3566 888 3137 398 
Q 2709 -91 1959 -91 
Q 1206 -91 779 398 
Q 353 888 353 1747 
Q 353 2609 779 3096 
Q 1206 3584 1959 3584 
z
" transform="scale(0.015625)"/>
       <path id="DejaVuSans-73" d="M 2834 3397 
L 2834 2853 
Q 2591 2978 2328 3040 
Q 2066 3103 1784 3103 
Q 1356 3103 1142 2972 
Q 928 2841 928 2578 
Q 928 2378 1081 2264 
Q 1234 2150 1697 2047 
L 1894 2003 
Q 2506 1872 2764 1633 
Q 3022 1394 3022 966 
Q 3022 478 2636 193 
Q 2250 -91 1575 -91 
Q 1294 -91 989 -36 
Q 684 19 347 128 
L 347 722 
Q 666 556 975 473 
Q 1284 391 1588 391 
Q 1994 391 2212 530 
Q 2431 669 2431 922 
Q 2431 1156 2273 1281 
Q 2116 1406 1581 1522 
L 1381 1569 
Q 847 1681 609 1914 
Q 372 2147 372 2553 
Q 372 3047 722 3315 
Q 1072 3584 1716 3584 
Q 2034 3584 2315 3537 
Q 2597 3491 2834 3397 
z
" transform="scale(0.015625)"/>
       <path id="DejaVuSans-64" d="M 2906 2969 
L 2906 4863 
L 3481 4863 
L 3481 0 
L 2906 0 
L 2906 525 
Q 2725 213 2448 61 
Q 2172 -91 1784 -91 
Q 1150 -91 751 415 
Q 353 922 353 1747 
Q 353 2572 751 3078 
Q 1150 3584 1784 3584 
Q 2172 3584 2448 3432 
Q 2725 3281 2906 2969 
z
M 947 1747 
Q 947 1113 1208 752 
Q 1469 391 1925 391 
Q 2381 391 2643 752 
Q 2906 1113 2906 1747 
Q 2906 2381 2643 2742 
Q 2381 3103 1925 3103 
Q 1469 3103 1208 2742 
Q 947 2381 947 1747 
z
" transform="scale(0.015625)"/>
      </defs>
      <use xlink:href="#DejaVuSans-44"/>
      <use xlink:href="#DejaVuSans-65" x="77.001953"/>
      <use xlink:href="#DejaVuSans-2d" x="138.525391"/>
      <use xlink:href="#DejaVuSans-6e" x="174.609375"/>
      <use xlink:href="#DejaVuSans-6f" x="237.988281"/>
      <use xlink:href="#DejaVuSans-69" x="299.169922"/>
      <use xlink:href="#DejaVuSans-73" x="326.953125"/>
      <use xlink:href="#DejaVuSans-65" x="379.052734"/>
      <use xlink:href="#DejaVuSans-64" x="440.576172"/>
     </g>
    </g>
   </g>
  </g>
 </g>
 <defs>
  <clipPath id="pe3e2439309">
   <rect x="57.6" y="41.472" width="357.12" height="266.112"/>
  </clipPath>
 </defs>
</svg>
