<?xml version="1.0" encoding="utf-8" standalone="no"?>
<!DOCTYPE svg PUBLIC "-//W3C//DTD SVG 1.1//EN"
  "http://www.w3.org/Graphics/SVG/1.1/DTD/svg11.dtd">
<svg xmlns:xlink="http://www.w3.org/1999/xlink" width="460.8pt" height="345.6pt" viewBox="0 0 460.8 345.6" xmlns="http://www.w3.org/2000/svg" version="1.1">
 <metadata>
  <rdf:RDF xmlns:dc="http://purl.org/dc/elements/1.1/" xmlns:cc="http://creativecommons.org/ns#" xmlns:rdf="http://www.w3.org/1999/02/22-rdf-syntax-ns#">
   <cc:Work>
    <dc:type rdf:resource="http://purl.org/dc/dcmitype/StillImage"/>
    <dc:date>2025-09-18T16:57:44.710985</dc:date>
    <dc:format>image/svg+xml</dc:format>
    <dc:creator>
     <cc:Agent>
      <dc:title>Matplotlib v3.9.4, https://matplotlib.org/</dc:title>
     </cc:Agent>
    </dc:creator>
   </cc:Work>
  </rdf:RDF>
 </metadata>
 <defs>
  <style type="text/css">*{stroke-linejoin: round; stroke-linecap: butt}</style>
 </defs>
 <g id="figure_1">
  <g id="patch_1">
   <path d="M 0 345.6 
L 460.8 345.6 
L 460.8 0 
L 0 0 
z
" style="fill: #ffffff"/>
  </g>
  <g id="axes_1">
   <g id="patch_2">
    <path d="M 57.6 307.584 
L 414.72 307.584 
L 414.72 41.472 
L 57.6 41.472 
z
" style="fill: #ffffff"/>
   </g>
   <g id="matplotlib.axis_1">
    <g id="xtick_1">
     <g id="line2d_1">
      <defs>
       <path id="mbb239fb3c3" d="M 0 0 
L 0 3.5 
" style="stroke: #000000; stroke-width: 0.8"/>
      </defs>
      <g>
       <use xlink:href="#mbb239fb3c3" x="72.193058" y="307.584" style="stroke: #000000; stroke-width: 0.8"/>
      </g>
     </g>
     <g id="text_1">
      <!-- 0 -->
      <g transform="translate(69.011808 322.182437) scale(0.1 -0.1)">
       <defs>
        <path id="DejaVuSans-30" d="M 2034 4250 
Q 1547 4250 1301 3770 
Q 1056 3291 1056 2328 
Q 1056 1369 1301 889 
Q 1547 409 2034 409 
Q 2525 409 2770 889 
Q 3016 1369 3016 2328 
Q 3016 3291 2770 3770 
Q 2525 4250 2034 4250 
z
M 2034 4750 
Q 2819 4750 3233 4129 
Q 3647 3509 3647 2328 
Q 3647 1150 3233 529 
Q 2819 -91 2034 -91 
Q 1250 -91 836 529 
Q 422 1150 422 2328 
Q 422 3509 836 4129 
Q 1250 4750 2034 4750 
z
" transform="scale(0.015625)"/>
       </defs>
       <use xlink:href="#DejaVuSans-30"/>
      </g>
     </g>
    </g>
    <g id="xtick_2">
     <g id="line2d_2">
      <g>
       <use xlink:href="#mbb239fb3c3" x="113.184793" y="307.584" style="stroke: #000000; stroke-width: 0.8"/>
      </g>
     </g>
     <g id="text_2">
      <!-- 25 -->
      <g transform="translate(106.822293 322.182437) scale(0.1 -0.1)">
       <defs>
        <path id="DejaVuSans-32" d="M 1228 531 
L 3431 531 
L 3431 0 
L 469 0 
L 469 531 
Q 828 903 1448 1529 
Q 2069 2156 2228 2338 
Q 2531 2678 2651 2914 
Q 2772 3150 2772 3378 
Q 2772 3750 2511 3984 
Q 2250 4219 1831 4219 
Q 1534 4219 1204 4116 
Q 875 4013 500 3803 
L 500 4441 
Q 881 4594 1212 4672 
Q 1544 4750 1819 4750 
Q 2544 4750 2975 4387 
Q 3406 4025 3406 3419 
Q 3406 3131 3298 2873 
Q 3191 2616 2906 2266 
Q 2828 2175 2409 1742 
Q 1991 1309 1228 531 
z
" transform="scale(0.015625)"/>
        <path id="DejaVuSans-35" d="M 691 4666 
L 3169 4666 
L 3169 4134 
L 1269 4134 
L 1269 2991 
Q 1406 3038 1543 3061 
Q 1681 3084 1819 3084 
Q 2600 3084 3056 2656 
Q 3513 2228 3513 1497 
Q 3513 744 3044 326 
Q 2575 -91 1722 -91 
Q 1428 -91 1123 -41 
Q 819 9 494 109 
L 494 744 
Q 775 591 1075 516 
Q 1375 441 1709 441 
Q 2250 441 2565 725 
Q 2881 1009 2881 1497 
Q 2881 1984 2565 2268 
Q 2250 2553 1709 2553 
Q 1456 2553 1204 2497 
Q 953 2441 691 2322 
L 691 4666 
z
" transform="scale(0.015625)"/>
       </defs>
       <use xlink:href="#DejaVuSans-32"/>
       <use xlink:href="#DejaVuSans-35" x="63.623047"/>
      </g>
     </g>
    </g>
    <g id="xtick_3">
     <g id="line2d_3">
      <g>
       <use xlink:href="#mbb239fb3c3" x="154.176529" y="307.584" style="stroke: #000000; stroke-width: 0.8"/>
      </g>
     </g>
     <g id="text_3">
      <!-- 50 -->
      <g transform="translate(147.814029 322.182437) scale(0.1 -0.1)">
       <use xlink:href="#DejaVuSans-35"/>
       <use xlink:href="#DejaVuSans-30" x="63.623047"/>
      </g>
     </g>
    </g>
    <g id="xtick_4">
     <g id="line2d_4">
      <g>
       <use xlink:href="#mbb239fb3c3" x="195.168264" y="307.584" style="stroke: #000000; stroke-width: 0.8"/>
      </g>
     </g>
     <g id="text_4">
      <!-- 75 -->
      <g transform="translate(188.805764 322.182437) scale(0.1 -0.1)">
       <defs>
        <path id="DejaVuSans-37" d="M 525 4666 
L 3525 4666 
L 3525 4397 
L 1831 0 
L 1172 0 
L 2766 4134 
L 525 4134 
L 525 4666 
z
" transform="scale(0.015625)"/>
       </defs>
       <use xlink:href="#DejaVuSans-37"/>
       <use xlink:href="#DejaVuSans-35" x="63.623047"/>
      </g>
     </g>
    </g>
    <g id="xtick_5">
     <g id="line2d_5">
      <g>
       <use xlink:href="#mbb239fb3c3" x="236.16" y="307.584" style="stroke: #000000; stroke-width: 0.8"/>
      </g>
     </g>
     <g id="text_5">
      <!-- 100 -->
      <g transform="translate(226.61625 322.182437) scale(0.1 -0.1)">
       <defs>
        <path id="DejaVuSans-31" d="M 794 531 
L 1825 531 
L 1825 4091 
L 703 3866 
L 703 4441 
L 1819 4666 
L 2450 4666 
L 2450 531 
L 3481 531 
L 3481 0 
L 794 0 
L 794 531 
z
" transform="scale(0.015625)"/>
       </defs>
       <use xlink:href="#DejaVuSans-31"/>
       <use xlink:href="#DejaVuSans-30" x="63.623047"/>
       <use xlink:href="#DejaVuSans-30" x="127.246094"/>
      </g>
     </g>
    </g>
    <g id="xtick_6">
     <g id="line2d_6">
      <g>
       <use xlink:href="#mbb239fb3c3" x="277.151736" y="307.584" style="stroke: #000000; stroke-width: 0.8"/>
      </g>
     </g>
     <g id="text_6">
      <!-- 125 -->
      <g transform="translate(267.607986 322.182437) scale(0.1 -0.1)">
       <use xlink:href="#DejaVuSans-31"/>
       <use xlink:href="#DejaVuSans-32" x="63.623047"/>
       <use xlink:href="#DejaVuSans-35" x="127.246094"/>
      </g>
     </g>
    </g>
    <g id="xtick_7">
     <g id="line2d_7">
      <g>
       <use xlink:href="#mbb239fb3c3" x="318.143471" y="307.584" style="stroke: #000000; stroke-width: 0.8"/>
      </g>
     </g>
     <g id="text_7">
      <!-- 150 -->
      <g transform="translate(308.599721 322.182437) scale(0.1 -0.1)">
       <use xlink:href="#DejaVuSans-31"/>
       <use xlink:href="#DejaVuSans-35" x="63.623047"/>
       <use xlink:href="#DejaVuSans-30" x="127.246094"/>
      </g>
     </g>
    </g>
    <g id="xtick_8">
     <g id="line2d_8">
      <g>
       <use xlink:href="#mbb239fb3c3" x="359.135207" y="307.584" style="stroke: #000000; stroke-width: 0.8"/>
      </g>
     </g>
     <g id="text_8">
      <!-- 175 -->
      <g transform="translate(349.591457 322.182437) scale(0.1 -0.1)">
       <use xlink:href="#DejaVuSans-31"/>
       <use xlink:href="#DejaVuSans-37" x="63.623047"/>
       <use xlink:href="#DejaVuSans-35" x="127.246094"/>
      </g>
     </g>
    </g>
    <g id="xtick_9">
     <g id="line2d_9">
      <g>
       <use xlink:href="#mbb239fb3c3" x="400.126942" y="307.584" style="stroke: #000000; stroke-width: 0.8"/>
      </g>
     </g>
     <g id="text_9">
      <!-- 200 -->
      <g transform="translate(390.583192 322.182437) scale(0.1 -0.1)">
       <use xlink:href="#DejaVuSans-32"/>
       <use xlink:href="#DejaVuSans-30" x="63.623047"/>
       <use xlink:href="#DejaVuSans-30" x="127.246094"/>
      </g>
     </g>
    </g>
   </g>
   <g id="matplotlib.axis_2">
    <g id="ytick_1">
     <g id="line2d_10">
      <defs>
       <path id="mc8b6ef8243" d="M 0 0 
L -3.5 0 
" style="stroke: #000000; stroke-width: 0.8"/>
      </defs>
      <g>
       <use xlink:href="#mc8b6ef8243" x="57.6" y="281.659473" style="stroke: #000000; stroke-width: 0.8"/>
      </g>
     </g>
     <g id="text_10">
      <!-- −1.5 -->
      <g transform="translate(26.317187 285.458691) scale(0.1 -0.1)">
       <defs>
        <path id="DejaVuSans-2212" d="M 678 2272 
L 4684 2272 
L 4684 1741 
L 678 1741 
L 678 2272 
z
" transform="scale(0.015625)"/>
        <path id="DejaVuSans-2e" d="M 684 794 
L 1344 794 
L 1344 0 
L 684 0 
L 684 794 
z
" transform="scale(0.015625)"/>
       </defs>
       <use xlink:href="#DejaVuSans-2212"/>
       <use xlink:href="#DejaVuSans-31" x="83.789062"/>
       <use xlink:href="#DejaVuSans-2e" x="147.412109"/>
       <use xlink:href="#DejaVuSans-35" x="179.199219"/>
      </g>
     </g>
    </g>
    <g id="ytick_2">
     <g id="line2d_11">
      <g>
       <use xlink:href="#mc8b6ef8243" x="57.6" y="245.055809" style="stroke: #000000; stroke-width: 0.8"/>
      </g>
     </g>
     <g id="text_11">
      <!-- −1.0 -->
      <g transform="translate(26.317187 248.855028) scale(0.1 -0.1)">
       <use xlink:href="#DejaVuSans-2212"/>
       <use xlink:href="#DejaVuSans-31" x="83.789062"/>
       <use xlink:href="#DejaVuSans-2e" x="147.412109"/>
       <use xlink:href="#DejaVuSans-30" x="179.199219"/>
      </g>
     </g>
    </g>
    <g id="ytick_3">
     <g id="line2d_12">
      <g>
       <use xlink:href="#mc8b6ef8243" x="57.6" y="208.452146" style="stroke: #000000; stroke-width: 0.8"/>
      </g>
     </g>
     <g id="text_12">
      <!-- −0.5 -->
      <g transform="translate(26.317187 212.251364) scale(0.1 -0.1)">
       <use xlink:href="#DejaVuSans-2212"/>
       <use xlink:href="#DejaVuSans-30" x="83.789062"/>
       <use xlink:href="#DejaVuSans-2e" x="147.412109"/>
       <use xlink:href="#DejaVuSans-35" x="179.199219"/>
      </g>
     </g>
    </g>
    <g id="ytick_4">
     <g id="line2d_13">
      <g>
       <use xlink:href="#mc8b6ef8243" x="57.6" y="171.848482" style="stroke: #000000; stroke-width: 0.8"/>
      </g>
     </g>
     <g id="text_13">
      <!-- 0.0 -->
      <g transform="translate(34.696875 175.647701) scale(0.1 -0.1)">
       <use xlink:href="#DejaVuSans-30"/>
       <use xlink:href="#DejaVuSans-2e" x="63.623047"/>
       <use xlink:href="#DejaVuSans-30" x="95.410156"/>
      </g>
     </g>
    </g>
    <g id="ytick_5">
     <g id="line2d_14">
      <g>
       <use xlink:href="#mc8b6ef8243" x="57.6" y="135.244819" style="stroke: #000000; stroke-width: 0.8"/>
      </g>
     </g>
     <g id="text_14">
      <!-- 0.5 -->
      <g transform="translate(34.696875 139.044037) scale(0.1 -0.1)">
       <use xlink:href="#DejaVuSans-30"/>
       <use xlink:href="#DejaVuSans-2e" x="63.623047"/>
       <use xlink:href="#DejaVuSans-35" x="95.410156"/>
      </g>
     </g>
    </g>
    <g id="ytick_6">
     <g id="line2d_15">
      <g>
       <use xlink:href="#mc8b6ef8243" x="57.6" y="98.641155" style="stroke: #000000; stroke-width: 0.8"/>
      </g>
     </g>
     <g id="text_15">
      <!-- 1.0 -->
      <g transform="translate(34.696875 102.440374) scale(0.1 -0.1)">
       <use xlink:href="#DejaVuSans-31"/>
       <use xlink:href="#DejaVuSans-2e" x="63.623047"/>
       <use xlink:href="#DejaVuSans-30" x="95.410156"/>
      </g>
     </g>
    </g>
    <g id="ytick_7">
     <g id="line2d_16">
      <g>
       <use xlink:href="#mc8b6ef8243" x="57.6" y="62.037492" style="stroke: #000000; stroke-width: 0.8"/>
      </g>
     </g>
     <g id="text_16">
      <!-- 1.5 -->
      <g transform="translate(34.696875 65.836711) scale(0.1 -0.1)">
       <use xlink:href="#DejaVuSans-31"/>
       <use xlink:href="#DejaVuSans-2e" x="63.623047"/>
       <use xlink:href="#DejaVuSans-35" x="95.410156"/>
      </g>
     </g>
    </g>
   </g>
   <g id="line2d_17">
    <path d="M 73.832727 188.398702 
L 75.472397 184.729485 
L 77.112066 189.817753 
L 78.751736 192.244517 
L 80.391405 185.254322 
L 82.031074 160.622226 
L 83.670744 195.71593 
L 85.310413 167.369638 
L 86.950083 176.058893 
L 88.589752 238.26362 
L 90.229421 227.503234 
L 91.869091 226.972785 
L 93.50876 210.064565 
L 95.14843 196.703102 
L 96.788099 197.875146 
L 98.427769 213.593126 
L 100.067438 185.291603 
L 101.707107 203.692968 
L 103.346777 224.344238 
L 104.986446 228.132926 
L 106.626116 232.543116 
L 108.265785 227.908342 
L 109.905455 232.846843 
L 111.545124 233.993434 
L 113.184793 211.015006 
L 114.824463 194.143802 
L 116.464132 184.73482 
L 118.103802 192.967626 
L 119.743471 204.334039 
L 121.38314 203.490826 
L 123.02281 203.148655 
L 124.662479 181.649205 
L 126.302149 191.14033 
L 127.941818 214.846262 
L 129.581488 223.719132 
L 131.221157 176.826806 
L 132.860826 205.747077 
L 134.500496 226.673535 
L 136.140165 221.965428 
L 137.779835 178.172172 
L 139.419504 184.415809 
L 141.059174 177.672805 
L 142.698843 212.751574 
L 144.338512 234.900185 
L 145.978182 222.46342 
L 147.617851 228.832005 
L 149.257521 213.923964 
L 150.89719 236.592381 
L 154.176529 175.798503 
L 155.816198 216.527226 
L 157.455868 199.900045 
L 159.095537 204.516252 
L 160.735207 169.474785 
L 162.374876 171.529928 
L 164.014545 151.967321 
L 165.654215 159.440264 
L 167.293884 153.264342 
L 168.933554 109.142731 
L 170.573223 78.944973 
L 172.212893 133.73838 
L 173.852562 119.727647 
L 175.492231 119.702966 
L 177.131901 149.205668 
L 178.77157 162.437753 
L 180.41124 155.195626 
L 182.050909 136.65181 
L 183.690579 132.753634 
L 185.330248 147.566274 
L 186.969917 170.532403 
L 188.609587 211.303427 
L 190.249256 164.233399 
L 191.888926 184.597725 
L 193.528595 200.478434 
L 195.168264 186.006045 
L 196.807934 188.577184 
L 198.447603 187.479556 
L 200.087273 171.574531 
L 201.726942 185.516221 
L 203.366612 205.385569 
L 205.006281 200.491385 
L 206.64595 196.172052 
L 208.28562 218.75267 
L 209.925289 234.033214 
L 211.564959 246.632428 
L 214.844298 188.0437 
L 216.483967 165.871573 
L 218.123636 192.453347 
L 219.763306 201.420323 
L 221.402975 223.391122 
L 223.042645 173.057539 
L 224.682314 192.539507 
L 227.961653 198.111901 
L 229.601322 190.299084 
L 231.240992 212.636733 
L 232.880661 218.105814 
L 234.520331 231.301357 
L 236.16 274.387441 
L 237.799669 249.267917 
L 241.079008 206.722614 
L 242.718678 174.34173 
L 245.998017 167.807673 
L 247.637686 155.559941 
L 249.277355 170.951851 
L 250.917025 151.167005 
L 252.556694 162.732309 
L 254.196364 213.38362 
L 255.836033 199.214448 
L 257.475702 195.434832 
L 259.115372 220.348369 
L 260.755041 200.290796 
L 262.394711 174.143423 
L 264.03438 205.536783 
L 265.67405 180.594106 
L 267.313719 164.088734 
L 268.953388 190.285451 
L 270.593058 193.75899 
L 272.232727 213.572476 
L 273.872397 217.973558 
L 275.512066 212.588383 
L 277.151736 183.758652 
L 278.791405 202.634856 
L 282.070744 287.78367 
L 283.710413 278.172858 
L 285.350083 295.488 
L 286.989752 276.065884 
L 291.90876 267.506523 
L 293.54843 266.18148 
L 295.188099 263.836414 
L 296.827769 266.606041 
L 298.467438 235.600942 
L 300.107107 222.230065 
L 301.746777 217.304667 
L 303.386446 189.135813 
L 305.026116 192.524425 
L 306.665785 188.14174 
L 308.305455 175.463085 
L 309.945124 183.795258 
L 311.584793 207.966938 
L 314.864132 149.136875 
L 316.503802 184.577236 
L 318.143471 198.372762 
L 319.78314 214.59318 
L 321.42281 239.847835 
L 323.062479 219.233935 
L 324.702149 184.36529 
L 326.341818 182.615646 
L 327.981488 149.389406 
L 329.621157 167.554404 
L 331.260826 160.237166 
L 332.900496 182.303861 
L 334.540165 176.738918 
L 336.179835 152.670358 
L 337.819504 144.009243 
L 339.459174 127.320059 
L 341.098843 144.498208 
L 342.738512 124.588337 
L 344.378182 100.587629 
L 346.017851 101.13232 
L 347.657521 139.824743 
L 349.29719 129.060792 
L 350.93686 128.192941 
L 352.576529 148.030487 
L 355.855868 182.028672 
L 357.495537 152.143082 
L 359.135207 156.524654 
L 360.774876 121.978077 
L 362.414545 173.121013 
L 364.054215 155.213686 
L 365.693884 122.758357 
L 367.333554 94.832461 
L 368.973223 121.582383 
L 370.612893 87.706 
L 372.252562 77.532534 
L 373.892231 64.725817 
L 375.531901 73.806121 
L 377.17157 60.249188 
L 378.81124 53.568 
L 380.450909 80.640026 
L 382.090579 144.021719 
L 383.730248 107.692542 
L 385.369917 94.779994 
L 387.009587 90.358806 
L 388.649256 108.696419 
L 390.288926 120.260142 
L 391.928595 156.526088 
L 393.568264 114.348238 
L 395.207934 128.323353 
L 396.847603 113.182524 
L 398.487273 128.728576 
L 398.487273 128.728576 
" clip-path="url(#pd986493c7b)" style="fill: none; stroke: #1f77b4; stroke-width: 1.5; stroke-linecap: square"/>
   </g>
   <g id="line2d_18">
    <path d="M 78.751736 188.156188 
L 80.391405 190.036777 
L 82.031074 185.290396 
L 83.670744 166.411962 
L 85.310413 190.848711 
L 86.950083 169.793892 
L 88.589752 177.206885 
L 90.229421 222.639964 
L 91.869091 219.105905 
L 93.50876 222.707193 
L 95.14843 209.083298 
L 96.788099 197.872002 
L 98.427769 196.637223 
L 100.067438 207.585578 
L 101.707107 187.279183 
L 103.346777 200.576641 
L 104.986446 215.221237 
L 106.626116 220.780259 
L 108.265785 225.909143 
L 109.905455 222.970992 
L 111.545124 226.741921 
L 113.184793 227.572692 
L 114.824463 210.649313 
L 116.464132 196.526573 
L 118.103802 186.614526 
L 119.743471 190.969983 
L 121.38314 199.374664 
L 123.02281 200.078132 
L 124.662479 200.622029 
L 126.302149 184.286695 
L 127.941818 190.071316 
L 129.581488 206.971965 
L 131.221157 215.896501 
L 132.860826 182.801372 
L 134.500496 202.355007 
L 136.140165 216.474595 
L 137.779835 216.421026 
L 139.419504 184.597744 
L 141.059174 186.185238 
L 142.698843 178.186513 
L 144.338512 204.743031 
L 145.978182 223.20052 
L 147.617851 217.84662 
L 149.257521 223.539569 
L 150.89719 211.738742 
L 154.176529 228.406653 
L 155.816198 182.771033 
L 157.455868 211.407334 
L 159.095537 196.844311 
L 160.735207 202.346264 
L 162.374876 174.901094 
L 164.014545 174.579956 
L 165.654215 157.285147 
L 167.293884 161.84771 
L 168.933554 156.180354 
L 170.573223 123.002634 
L 172.212893 96.91492 
L 173.852562 133.092202 
L 175.492231 123.702868 
L 177.131901 126.922175 
L 178.77157 148.164781 
L 180.41124 160.035155 
L 182.050909 157.622201 
L 183.690579 144.143293 
L 185.330248 139.475551 
L 186.969917 149.027809 
L 188.609587 167.032285 
L 190.249256 200.420551 
L 191.888926 169.158201 
L 193.528595 184.63587 
L 195.168264 194.385727 
L 196.807934 185.987612 
L 198.447603 188.209184 
L 200.087273 186.452697 
L 201.726942 174.555076 
L 203.366612 184.001484 
L 205.006281 198.705834 
L 206.64595 197.31656 
L 208.28562 195.237818 
L 209.925289 211.662657 
L 213.204628 236.51147 
L 214.844298 216.784116 
L 216.483967 193.307672 
L 218.123636 172.492593 
L 219.763306 188.925672 
L 221.402975 195.719174 
L 223.042645 214.89606 
L 224.682314 178.920514 
L 227.961653 192.108476 
L 229.601322 193.765171 
L 231.240992 189.680477 
L 232.880661 206.488361 
L 234.520331 211.450263 
L 236.16 223.453026 
L 237.799669 257.267851 
L 241.079008 227.72573 
L 242.718678 208.27341 
L 245.998017 180.84992 
L 247.637686 172.241323 
L 249.277355 160.131072 
L 250.917025 170.496127 
L 252.556694 155.595663 
L 254.196364 164.241681 
L 255.836033 201.769371 
L 257.475702 195.142755 
L 259.115372 195.201949 
L 260.755041 212.725833 
L 262.394711 198.860768 
L 264.03438 179.701826 
L 265.67405 200.261525 
L 267.313719 181.430523 
L 268.953388 169.73759 
L 270.593058 186.61301 
L 272.232727 189.656696 
L 273.872397 206.825637 
L 275.512066 211.670201 
L 277.151736 209.371103 
L 278.791405 187.570397 
L 282.070744 199.604 
L 283.710413 262.988721 
L 285.350083 262.545715 
L 286.989752 281.436205 
L 291.90876 267.130452 
L 293.54843 260.733293 
L 295.188099 257.726322 
L 296.827769 255.225202 
L 298.467438 257.070097 
L 300.107107 233.634248 
L 301.746777 221.770415 
L 303.386446 214.864727 
L 305.026116 192.254303 
L 306.665785 192.658307 
L 308.305455 187.439215 
L 309.945124 177.833454 
L 311.584793 182.997172 
L 314.864132 200.840644 
L 316.503802 158.534884 
L 318.143471 183.411776 
L 319.78314 191.655971 
L 321.42281 207.459825 
L 323.062479 228.615831 
L 324.702149 215.85809 
L 326.341818 190.097676 
L 327.981488 185.011631 
L 329.621157 157.161044 
L 331.260826 168.652076 
L 332.900496 161.771103 
L 334.540165 179.353955 
L 336.179835 175.996046 
L 337.819504 159.113003 
L 339.459174 150.621202 
L 341.098843 135.645033 
L 342.738512 146.918358 
L 344.378182 131.702187 
L 346.017851 113.592601 
L 347.657521 110.982909 
L 349.29719 138.455239 
L 350.93686 132.814102 
L 352.576529 134.38945 
L 355.855868 148.517792 
L 357.495537 175.407596 
L 359.135207 156.468815 
L 360.774876 160.445774 
L 362.414545 132.361303 
L 364.054215 169.156371 
L 365.693884 156.262838 
L 367.333554 134.447765 
L 368.973223 109.933543 
L 370.612893 125.937099 
L 372.252562 99.925249 
L 373.892231 92.102 
L 375.531901 79.225829 
L 377.17157 84.510794 
L 378.81124 73.875288 
L 380.450909 68.649506 
L 382.090579 87.666966 
L 383.730248 136.78696 
L 385.369917 115.386027 
L 388.649256 101.199165 
L 390.288926 113.806656 
L 391.928595 123.37689 
L 393.568264 152.902424 
L 395.207934 124.193382 
L 396.847603 134.812795 
L 398.487273 121.078605 
L 398.487273 121.078605 
" clip-path="url(#pd986493c7b)" style="fill: none; stroke: #ff7f0e; stroke-width: 1.5; stroke-linecap: square"/>
   </g>
   <g id="patch_3">
    <path d="M 57.6 307.584 
L 57.6 41.472 
" style="fill: none; stroke: #000000; stroke-width: 0.8; stroke-linejoin: miter; stroke-linecap: square"/>
   </g>
   <g id="patch_4">
    <path d="M 414.72 307.584 
L 414.72 41.472 
" style="fill: none; stroke: #000000; stroke-width: 0.8; stroke-linejoin: miter; stroke-linecap: square"/>
   </g>
   <g id="patch_5">
    <path d="M 57.6 307.584 
L 414.72 307.584 
" style="fill: none; stroke: #000000; stroke-width: 0.8; stroke-linejoin: miter; stroke-linecap: square"/>
   </g>
   <g id="patch_6">
    <path d="M 57.6 41.472 
L 414.72 41.472 
" style="fill: none; stroke: #000000; stroke-width: 0.8; stroke-linejoin: miter; stroke-linecap: square"/>
   </g>
   <g id="legend_1">
    <g id="patch_7">
     <path d="M 64.6 78.82825 
L 147.00625 78.82825 
Q 149.00625 78.82825 149.00625 76.82825 
L 149.00625 48.472 
Q 149.00625 46.472 147.00625 46.472 
L 64.6 46.472 
Q 62.6 46.472 62.6 48.472 
L 62.6 76.82825 
Q 62.6 78.82825 64.6 78.82825 
z
" style="fill: #ffffff; opacity: 0.8; stroke: #cccccc; stroke-linejoin: miter"/>
    </g>
    <g id="line2d_19">
     <path d="M 66.6 54.570437 
L 76.6 54.570437 
L 86.6 54.570437 
" style="fill: none; stroke: #1f77b4; stroke-width: 1.5; stroke-linecap: square"/>
    </g>
    <g id="text_17">
     <!-- Original -->
     <g transform="translate(94.6 58.070437) scale(0.1 -0.1)">
      <defs>
       <path id="DejaVuSans-4f" d="M 2522 4238 
Q 1834 4238 1429 3725 
Q 1025 3213 1025 2328 
Q 1025 1447 1429 934 
Q 1834 422 2522 422 
Q 3209 422 3611 934 
Q 4013 1447 4013 2328 
Q 4013 3213 3611 3725 
Q 3209 4238 2522 4238 
z
M 2522 4750 
Q 3503 4750 4090 4092 
Q 4678 3434 4678 2328 
Q 4678 1225 4090 567 
Q 3503 -91 2522 -91 
Q 1538 -91 948 565 
Q 359 1222 359 2328 
Q 359 3434 948 4092 
Q 1538 4750 2522 4750 
z
" transform="scale(0.015625)"/>
       <path id="DejaVuSans-72" d="M 2631 2963 
Q 2534 3019 2420 3045 
Q 2306 3072 2169 3072 
Q 1681 3072 1420 2755 
Q 1159 2438 1159 1844 
L 1159 0 
L 581 0 
L 581 3500 
L 1159 3500 
L 1159 2956 
Q 1341 3275 1631 3429 
Q 1922 3584 2338 3584 
Q 2397 3584 2469 3576 
Q 2541 3569 2628 3553 
L 2631 2963 
z
" transform="scale(0.015625)"/>
       <path id="DejaVuSans-69" d="M 603 3500 
L 1178 3500 
L 1178 0 
L 603 0 
L 603 3500 
z
M 603 4863 
L 1178 4863 
L 1178 4134 
L 603 4134 
L 603 4863 
z
" transform="scale(0.015625)"/>
       <path id="DejaVuSans-67" d="M 2906 1791 
Q 2906 2416 2648 2759 
Q 2391 3103 1925 3103 
Q 1463 3103 1205 2759 
Q 947 2416 947 1791 
Q 947 1169 1205 825 
Q 1463 481 1925 481 
Q 2391 481 2648 825 
Q 2906 1169 2906 1791 
z
M 3481 434 
Q 3481 -459 3084 -895 
Q 2688 -1331 1869 -1331 
Q 1566 -1331 1297 -1286 
Q 1028 -1241 775 -1147 
L 775 -588 
Q 1028 -725 1275 -790 
Q 1522 -856 1778 -856 
Q 2344 -856 2625 -561 
Q 2906 -266 2906 331 
L 2906 616 
Q 2728 306 2450 153 
Q 2172 0 1784 0 
Q 1141 0 747 490 
Q 353 981 353 1791 
Q 353 2603 747 3093 
Q 1141 3584 1784 3584 
Q 2172 3584 2450 3431 
Q 2728 3278 2906 2969 
L 2906 3500 
L 3481 3500 
L 3481 434 
z
" transform="scale(0.015625)"/>
       <path id="DejaVuSans-6e" d="M 3513 2113 
L 3513 0 
L 2938 0 
L 2938 2094 
Q 2938 2591 2744 2837 
Q 2550 3084 2163 3084 
Q 1697 3084 1428 2787 
Q 1159 2491 1159 1978 
L 1159 0 
L 581 0 
L 581 3500 
L 1159 3500 
L 1159 2956 
Q 1366 3272 1645 3428 
Q 1925 3584 2291 3584 
Q 2894 3584 3203 3211 
Q 3513 2838 3513 2113 
z
" transform="scale(0.015625)"/>
       <path id="DejaVuSans-61" d="M 2194 1759 
Q 1497 1759 1228 1600 
Q 959 1441 959 1056 
Q 959 750 1161 570 
Q 1363 391 1709 391 
Q 2188 391 2477 730 
Q 2766 1069 2766 1631 
L 2766 1759 
L 2194 1759 
z
M 3341 1997 
L 3341 0 
L 2766 0 
L 2766 531 
Q 2569 213 2275 61 
Q 1981 -91 1556 -91 
Q 1019 -91 701 211 
Q 384 513 384 1019 
Q 384 1609 779 1909 
Q 1175 2209 1959 2209 
L 2766 2209 
L 2766 2266 
Q 2766 2663 2505 2880 
Q 2244 3097 1772 3097 
Q 1472 3097 1187 3025 
Q 903 2953 641 2809 
L 641 3341 
Q 956 3463 1253 3523 
Q 1550 3584 1831 3584 
Q 2591 3584 2966 3190 
Q 3341 2797 3341 1997 
z
" transform="scale(0.015625)"/>
       <path id="DejaVuSans-6c" d="M 603 4863 
L 1178 4863 
L 1178 0 
L 603 0 
L 603 4863 
z
" transform="scale(0.015625)"/>
      </defs>
      <use xlink:href="#DejaVuSans-4f"/>
      <use xlink:href="#DejaVuSans-72" x="78.710938"/>
      <use xlink:href="#DejaVuSans-69" x="119.824219"/>
      <use xlink:href="#DejaVuSans-67" x="147.607422"/>
      <use xlink:href="#DejaVuSans-69" x="211.083984"/>
      <use xlink:href="#DejaVuSans-6e" x="238.867188"/>
      <use xlink:href="#DejaVuSans-61" x="302.246094"/>
      <use xlink:href="#DejaVuSans-6c" x="363.525391"/>
     </g>
    </g>
    <g id="line2d_20">
     <path d="M 66.6 69.248562 
L 76.6 69.248562 
L 86.6 69.248562 
" style="fill: none; stroke: #ff7f0e; stroke-width: 1.5; stroke-linecap: square"/>
    </g>
    <g id="text_18">
     <!-- De-noised -->
     <g transform="translate(94.6 72.748562) scale(0.1 -0.1)">
      <defs>
       <path id="DejaVuSans-44" d="M 1259 4147 
L 1259 519 
L 2022 519 
Q 2988 519 3436 956 
Q 3884 1394 3884 2338 
Q 3884 3275 3436 3711 
Q 2988 4147 2022 4147 
L 1259 4147 
z
M 628 4666 
L 1925 4666 
Q 3281 4666 3915 4102 
Q 4550 3538 4550 2338 
Q 4550 1131 3912 565 
Q 3275 0 1925 0 
L 628 0 
L 628 4666 
z
" transform="scale(0.015625)"/>
       <path id="DejaVuSans-65" d="M 3597 1894 
L 3597 1613 
L 953 1613 
Q 991 1019 1311 708 
Q 1631 397 2203 397 
Q 2534 397 2845 478 
Q 3156 559 3463 722 
L 3463 178 
Q 3153 47 2828 -22 
Q 2503 -91 2169 -91 
Q 1331 -91 842 396 
Q 353 884 353 1716 
Q 353 2575 817 3079 
Q 1281 3584 2069 3584 
Q 2775 3584 3186 3129 
Q 3597 2675 3597 1894 
z
M 3022 2063 
Q 3016 2534 2758 2815 
Q 2500 3097 2075 3097 
Q 1594 3097 1305 2825 
Q 1016 2553 972 2059 
L 3022 2063 
z
" transform="scale(0.015625)"/>
       <path id="DejaVuSans-2d" d="M 313 2009 
L 1997 2009 
L 1997 1497 
L 313 1497 
L 313 2009 
z
" transform="scale(0.015625)"/>
       <path id="DejaVuSans-6f" d="M 1959 3097 
Q 1497 3097 1228 2736 
Q 959 2375 959 1747 
Q 959 1119 1226 758 
Q 1494 397 1959 397 
Q 2419 397 2687 759 
Q 2956 1122 2956 1747 
Q 2956 2369 2687 2733 
Q 2419 3097 1959 3097 
z
M 1959 3584 
Q 2709 3584 3137 3096 
Q 3566 2609 3566 1747 
Q 3566 888 3137 398 
Q 2709 -91 1959 -91 
Q 1206 -91 779 398 
Q 353 888 353 1747 
Q 353 2609 779 3096 
Q 1206 3584 1959 3584 
z
" transform="scale(0.015625)"/>
       <path id="DejaVuSans-73" d="M 2834 3397 
L 2834 2853 
Q 2591 2978 2328 3040 
Q 2066 3103 1784 3103 
Q 1356 3103 1142 2972 
Q 928 2841 928 2578 
Q 928 2378 1081 2264 
Q 1234 2150 1697 2047 
L 1894 2003 
Q 2506 1872 2764 1633 
Q 3022 1394 3022 966 
Q 3022 478 2636 193 
Q 2250 -91 1575 -91 
Q 1294 -91 989 -36 
Q 684 19 347 128 
L 347 722 
Q 666 556 975 473 
Q 1284 391 1588 391 
Q 1994 391 2212 530 
Q 2431 669 2431 922 
Q 2431 1156 2273 1281 
Q 2116 1406 1581 1522 
L 1381 1569 
Q 847 1681 609 1914 
Q 372 2147 372 2553 
Q 372 3047 722 3315 
Q 1072 3584 1716 3584 
Q 2034 3584 2315 3537 
Q 2597 3491 2834 3397 
z
" transform="scale(0.015625)"/>
       <path id="DejaVuSans-64" d="M 2906 2969 
L 2906 4863 
L 3481 4863 
L 3481 0 
L 2906 0 
L 2906 525 
Q 2725 213 2448 61 
Q 2172 -91 1784 -91 
Q 1150 -91 751 415 
Q 353 922 353 1747 
Q 353 2572 751 3078 
Q 1150 3584 1784 3584 
Q 2172 3584 2448 3432 
Q 2725 3281 2906 2969 
z
M 947 1747 
Q 947 1113 1208 752 
Q 1469 391 1925 391 
Q 2381 391 2643 752 
Q 2906 1113 2906 1747 
Q 2906 2381 2643 2742 
Q 2381 3103 1925 3103 
Q 1469 3103 1208 2742 
Q 947 2381 947 1747 
z
" transform="scale(0.015625)"/>
      </defs>
      <use xlink:href="#DejaVuSans-44"/>
      <use xlink:href="#DejaVuSans-65" x="77.001953"/>
      <use xlink:href="#DejaVuSans-2d" x="138.525391"/>
      <use xlink:href="#DejaVuSans-6e" x="174.609375"/>
      <use xlink:href="#DejaVuSans-6f" x="237.988281"/>
      <use xlink:href="#DejaVuSans-69" x="299.169922"/>
      <use xlink:href="#DejaVuSans-73" x="326.953125"/>
      <use xlink:href="#DejaVuSans-65" x="379.052734"/>
      <use xlink:href="#DejaVuSans-64" x="440.576172"/>
     </g>
    </g>
   </g>
  </g>
 </g>
 <defs>
  <clipPath id="pd986493c7b">
   <rect x="57.6" y="41.472" width="357.12" height="266.112"/>
  </clipPath>
 </defs>
</svg>
