<?xml version="1.0" encoding="utf-8" standalone="no"?>
<!DOCTYPE svg PUBLIC "-//W3C//DTD SVG 1.1//EN"
  "http://www.w3.org/Graphics/SVG/1.1/DTD/svg11.dtd">
<svg xmlns:xlink="http://www.w3.org/1999/xlink" width="460.8pt" height="345.6pt" viewBox="0 0 460.8 345.6" xmlns="http://www.w3.org/2000/svg" version="1.1">
 <metadata>
  <rdf:RDF xmlns:dc="http://purl.org/dc/elements/1.1/" xmlns:cc="http://creativecommons.org/ns#" xmlns:rdf="http://www.w3.org/1999/02/22-rdf-syntax-ns#">
   <cc:Work>
    <dc:type rdf:resource="http://purl.org/dc/dcmitype/StillImage"/>
    <dc:date>2025-09-18T17:07:01.818377</dc:date>
    <dc:format>image/svg+xml</dc:format>
    <dc:creator>
     <cc:Agent>
      <dc:title>Matplotlib v3.9.4, https://matplotlib.org/</dc:title>
     </cc:Agent>
    </dc:creator>
   </cc:Work>
  </rdf:RDF>
 </metadata>
 <defs>
  <style type="text/css">*{stroke-linejoin: round; stroke-linecap: butt}</style>
 </defs>
 <g id="figure_1">
  <g id="patch_1">
   <path d="M 0 345.6 
L 460.8 345.6 
L 460.8 0 
L 0 0 
z
" style="fill: #ffffff"/>
  </g>
  <g id="axes_1">
   <g id="patch_2">
    <path d="M 57.6 307.584 
L 414.72 307.584 
L 414.72 41.472 
L 57.6 41.472 
z
" style="fill: #ffffff"/>
   </g>
   <g id="matplotlib.axis_1">
    <g id="xtick_1">
     <g id="line2d_1">
      <defs>
       <path id="m3e43218766" d="M 0 0 
L 0 3.5 
" style="stroke: #000000; stroke-width: 0.8"/>
      </defs>
      <g>
       <use xlink:href="#m3e43218766" x="73.832727" y="307.584" style="stroke: #000000; stroke-width: 0.8"/>
      </g>
     </g>
     <g id="text_1">
      <!-- 0 -->
      <g transform="translate(70.651477 322.182437) scale(0.1 -0.1)">
       <defs>
        <path id="DejaVuSans-30" d="M 2034 4250 
Q 1547 4250 1301 3770 
Q 1056 3291 1056 2328 
Q 1056 1369 1301 889 
Q 1547 409 2034 409 
Q 2525 409 2770 889 
Q 3016 1369 3016 2328 
Q 3016 3291 2770 3770 
Q 2525 4250 2034 4250 
z
M 2034 4750 
Q 2819 4750 3233 4129 
Q 3647 3509 3647 2328 
Q 3647 1150 3233 529 
Q 2819 -91 2034 -91 
Q 1250 -91 836 529 
Q 422 1150 422 2328 
Q 422 3509 836 4129 
Q 1250 4750 2034 4750 
z
" transform="scale(0.015625)"/>
       </defs>
       <use xlink:href="#DejaVuSans-30"/>
      </g>
     </g>
    </g>
    <g id="xtick_2">
     <g id="line2d_2">
      <g>
       <use xlink:href="#m3e43218766" x="114.618474" y="307.584" style="stroke: #000000; stroke-width: 0.8"/>
      </g>
     </g>
     <g id="text_2">
      <!-- 25 -->
      <g transform="translate(108.255974 322.182437) scale(0.1 -0.1)">
       <defs>
        <path id="DejaVuSans-32" d="M 1228 531 
L 3431 531 
L 3431 0 
L 469 0 
L 469 531 
Q 828 903 1448 1529 
Q 2069 2156 2228 2338 
Q 2531 2678 2651 2914 
Q 2772 3150 2772 3378 
Q 2772 3750 2511 3984 
Q 2250 4219 1831 4219 
Q 1534 4219 1204 4116 
Q 875 4013 500 3803 
L 500 4441 
Q 881 4594 1212 4672 
Q 1544 4750 1819 4750 
Q 2544 4750 2975 4387 
Q 3406 4025 3406 3419 
Q 3406 3131 3298 2873 
Q 3191 2616 2906 2266 
Q 2828 2175 2409 1742 
Q 1991 1309 1228 531 
z
" transform="scale(0.015625)"/>
        <path id="DejaVuSans-35" d="M 691 4666 
L 3169 4666 
L 3169 4134 
L 1269 4134 
L 1269 2991 
Q 1406 3038 1543 3061 
Q 1681 3084 1819 3084 
Q 2600 3084 3056 2656 
Q 3513 2228 3513 1497 
Q 3513 744 3044 326 
Q 2575 -91 1722 -91 
Q 1428 -91 1123 -41 
Q 819 9 494 109 
L 494 744 
Q 775 591 1075 516 
Q 1375 441 1709 441 
Q 2250 441 2565 725 
Q 2881 1009 2881 1497 
Q 2881 1984 2565 2268 
Q 2250 2553 1709 2553 
Q 1456 2553 1204 2497 
Q 953 2441 691 2322 
L 691 4666 
z
" transform="scale(0.015625)"/>
       </defs>
       <use xlink:href="#DejaVuSans-32"/>
       <use xlink:href="#DejaVuSans-35" x="63.623047"/>
      </g>
     </g>
    </g>
    <g id="xtick_3">
     <g id="line2d_3">
      <g>
       <use xlink:href="#m3e43218766" x="155.404221" y="307.584" style="stroke: #000000; stroke-width: 0.8"/>
      </g>
     </g>
     <g id="text_3">
      <!-- 50 -->
      <g transform="translate(149.041721 322.182437) scale(0.1 -0.1)">
       <use xlink:href="#DejaVuSans-35"/>
       <use xlink:href="#DejaVuSans-30" x="63.623047"/>
      </g>
     </g>
    </g>
    <g id="xtick_4">
     <g id="line2d_4">
      <g>
       <use xlink:href="#m3e43218766" x="196.189968" y="307.584" style="stroke: #000000; stroke-width: 0.8"/>
      </g>
     </g>
     <g id="text_4">
      <!-- 75 -->
      <g transform="translate(189.827468 322.182437) scale(0.1 -0.1)">
       <defs>
        <path id="DejaVuSans-37" d="M 525 4666 
L 3525 4666 
L 3525 4397 
L 1831 0 
L 1172 0 
L 2766 4134 
L 525 4134 
L 525 4666 
z
" transform="scale(0.015625)"/>
       </defs>
       <use xlink:href="#DejaVuSans-37"/>
       <use xlink:href="#DejaVuSans-35" x="63.623047"/>
      </g>
     </g>
    </g>
    <g id="xtick_5">
     <g id="line2d_5">
      <g>
       <use xlink:href="#m3e43218766" x="236.975715" y="307.584" style="stroke: #000000; stroke-width: 0.8"/>
      </g>
     </g>
     <g id="text_5">
      <!-- 100 -->
      <g transform="translate(227.431965 322.182437) scale(0.1 -0.1)">
       <defs>
        <path id="DejaVuSans-31" d="M 794 531 
L 1825 531 
L 1825 4091 
L 703 3866 
L 703 4441 
L 1819 4666 
L 2450 4666 
L 2450 531 
L 3481 531 
L 3481 0 
L 794 0 
L 794 531 
z
" transform="scale(0.015625)"/>
       </defs>
       <use xlink:href="#DejaVuSans-31"/>
       <use xlink:href="#DejaVuSans-30" x="63.623047"/>
       <use xlink:href="#DejaVuSans-30" x="127.246094"/>
      </g>
     </g>
    </g>
    <g id="xtick_6">
     <g id="line2d_6">
      <g>
       <use xlink:href="#m3e43218766" x="277.761462" y="307.584" style="stroke: #000000; stroke-width: 0.8"/>
      </g>
     </g>
     <g id="text_6">
      <!-- 125 -->
      <g transform="translate(268.217712 322.182437) scale(0.1 -0.1)">
       <use xlink:href="#DejaVuSans-31"/>
       <use xlink:href="#DejaVuSans-32" x="63.623047"/>
       <use xlink:href="#DejaVuSans-35" x="127.246094"/>
      </g>
     </g>
    </g>
    <g id="xtick_7">
     <g id="line2d_7">
      <g>
       <use xlink:href="#m3e43218766" x="318.547209" y="307.584" style="stroke: #000000; stroke-width: 0.8"/>
      </g>
     </g>
     <g id="text_7">
      <!-- 150 -->
      <g transform="translate(309.003459 322.182437) scale(0.1 -0.1)">
       <use xlink:href="#DejaVuSans-31"/>
       <use xlink:href="#DejaVuSans-35" x="63.623047"/>
       <use xlink:href="#DejaVuSans-30" x="127.246094"/>
      </g>
     </g>
    </g>
    <g id="xtick_8">
     <g id="line2d_8">
      <g>
       <use xlink:href="#m3e43218766" x="359.332956" y="307.584" style="stroke: #000000; stroke-width: 0.8"/>
      </g>
     </g>
     <g id="text_8">
      <!-- 175 -->
      <g transform="translate(349.789206 322.182437) scale(0.1 -0.1)">
       <use xlink:href="#DejaVuSans-31"/>
       <use xlink:href="#DejaVuSans-37" x="63.623047"/>
       <use xlink:href="#DejaVuSans-35" x="127.246094"/>
      </g>
     </g>
    </g>
    <g id="xtick_9">
     <g id="line2d_9">
      <g>
       <use xlink:href="#m3e43218766" x="400.118703" y="307.584" style="stroke: #000000; stroke-width: 0.8"/>
      </g>
     </g>
     <g id="text_9">
      <!-- 200 -->
      <g transform="translate(390.574953 322.182437) scale(0.1 -0.1)">
       <use xlink:href="#DejaVuSans-32"/>
       <use xlink:href="#DejaVuSans-30" x="63.623047"/>
       <use xlink:href="#DejaVuSans-30" x="127.246094"/>
      </g>
     </g>
    </g>
   </g>
   <g id="matplotlib.axis_2">
    <g id="ytick_1">
     <g id="line2d_10">
      <defs>
       <path id="mc860d66e33" d="M 0 0 
L -3.5 0 
" style="stroke: #000000; stroke-width: 0.8"/>
      </defs>
      <g>
       <use xlink:href="#mc860d66e33" x="57.6" y="296.931194" style="stroke: #000000; stroke-width: 0.8"/>
      </g>
     </g>
     <g id="text_10">
      <!-- −0.4 -->
      <g transform="translate(26.317187 300.730412) scale(0.1 -0.1)">
       <defs>
        <path id="DejaVuSans-2212" d="M 678 2272 
L 4684 2272 
L 4684 1741 
L 678 1741 
L 678 2272 
z
" transform="scale(0.015625)"/>
        <path id="DejaVuSans-2e" d="M 684 794 
L 1344 794 
L 1344 0 
L 684 0 
L 684 794 
z
" transform="scale(0.015625)"/>
        <path id="DejaVuSans-34" d="M 2419 4116 
L 825 1625 
L 2419 1625 
L 2419 4116 
z
M 2253 4666 
L 3047 4666 
L 3047 1625 
L 3713 1625 
L 3713 1100 
L 3047 1100 
L 3047 0 
L 2419 0 
L 2419 1100 
L 313 1100 
L 313 1709 
L 2253 4666 
z
" transform="scale(0.015625)"/>
       </defs>
       <use xlink:href="#DejaVuSans-2212"/>
       <use xlink:href="#DejaVuSans-30" x="83.789062"/>
       <use xlink:href="#DejaVuSans-2e" x="147.412109"/>
       <use xlink:href="#DejaVuSans-34" x="179.199219"/>
      </g>
     </g>
    </g>
    <g id="ytick_2">
     <g id="line2d_11">
      <g>
       <use xlink:href="#mc860d66e33" x="57.6" y="264.185663" style="stroke: #000000; stroke-width: 0.8"/>
      </g>
     </g>
     <g id="text_11">
      <!-- −0.2 -->
      <g transform="translate(26.317187 267.984881) scale(0.1 -0.1)">
       <use xlink:href="#DejaVuSans-2212"/>
       <use xlink:href="#DejaVuSans-30" x="83.789062"/>
       <use xlink:href="#DejaVuSans-2e" x="147.412109"/>
       <use xlink:href="#DejaVuSans-32" x="179.199219"/>
      </g>
     </g>
    </g>
    <g id="ytick_3">
     <g id="line2d_12">
      <g>
       <use xlink:href="#mc860d66e33" x="57.6" y="231.440132" style="stroke: #000000; stroke-width: 0.8"/>
      </g>
     </g>
     <g id="text_12">
      <!-- 0.0 -->
      <g transform="translate(34.696875 235.239351) scale(0.1 -0.1)">
       <use xlink:href="#DejaVuSans-30"/>
       <use xlink:href="#DejaVuSans-2e" x="63.623047"/>
       <use xlink:href="#DejaVuSans-30" x="95.410156"/>
      </g>
     </g>
    </g>
    <g id="ytick_4">
     <g id="line2d_13">
      <g>
       <use xlink:href="#mc860d66e33" x="57.6" y="198.694601" style="stroke: #000000; stroke-width: 0.8"/>
      </g>
     </g>
     <g id="text_13">
      <!-- 0.2 -->
      <g transform="translate(34.696875 202.49382) scale(0.1 -0.1)">
       <use xlink:href="#DejaVuSans-30"/>
       <use xlink:href="#DejaVuSans-2e" x="63.623047"/>
       <use xlink:href="#DejaVuSans-32" x="95.410156"/>
      </g>
     </g>
    </g>
    <g id="ytick_5">
     <g id="line2d_14">
      <g>
       <use xlink:href="#mc860d66e33" x="57.6" y="165.94907" style="stroke: #000000; stroke-width: 0.8"/>
      </g>
     </g>
     <g id="text_14">
      <!-- 0.4 -->
      <g transform="translate(34.696875 169.748289) scale(0.1 -0.1)">
       <use xlink:href="#DejaVuSans-30"/>
       <use xlink:href="#DejaVuSans-2e" x="63.623047"/>
       <use xlink:href="#DejaVuSans-34" x="95.410156"/>
      </g>
     </g>
    </g>
    <g id="ytick_6">
     <g id="line2d_15">
      <g>
       <use xlink:href="#mc860d66e33" x="57.6" y="133.203539" style="stroke: #000000; stroke-width: 0.8"/>
      </g>
     </g>
     <g id="text_15">
      <!-- 0.6 -->
      <g transform="translate(34.696875 137.002758) scale(0.1 -0.1)">
       <defs>
        <path id="DejaVuSans-36" d="M 2113 2584 
Q 1688 2584 1439 2293 
Q 1191 2003 1191 1497 
Q 1191 994 1439 701 
Q 1688 409 2113 409 
Q 2538 409 2786 701 
Q 3034 994 3034 1497 
Q 3034 2003 2786 2293 
Q 2538 2584 2113 2584 
z
M 3366 4563 
L 3366 3988 
Q 3128 4100 2886 4159 
Q 2644 4219 2406 4219 
Q 1781 4219 1451 3797 
Q 1122 3375 1075 2522 
Q 1259 2794 1537 2939 
Q 1816 3084 2150 3084 
Q 2853 3084 3261 2657 
Q 3669 2231 3669 1497 
Q 3669 778 3244 343 
Q 2819 -91 2113 -91 
Q 1303 -91 875 529 
Q 447 1150 447 2328 
Q 447 3434 972 4092 
Q 1497 4750 2381 4750 
Q 2619 4750 2861 4703 
Q 3103 4656 3366 4563 
z
" transform="scale(0.015625)"/>
       </defs>
       <use xlink:href="#DejaVuSans-30"/>
       <use xlink:href="#DejaVuSans-2e" x="63.623047"/>
       <use xlink:href="#DejaVuSans-36" x="95.410156"/>
      </g>
     </g>
    </g>
    <g id="ytick_7">
     <g id="line2d_16">
      <g>
       <use xlink:href="#mc860d66e33" x="57.6" y="100.458008" style="stroke: #000000; stroke-width: 0.8"/>
      </g>
     </g>
     <g id="text_16">
      <!-- 0.8 -->
      <g transform="translate(34.696875 104.257227) scale(0.1 -0.1)">
       <defs>
        <path id="DejaVuSans-38" d="M 2034 2216 
Q 1584 2216 1326 1975 
Q 1069 1734 1069 1313 
Q 1069 891 1326 650 
Q 1584 409 2034 409 
Q 2484 409 2743 651 
Q 3003 894 3003 1313 
Q 3003 1734 2745 1975 
Q 2488 2216 2034 2216 
z
M 1403 2484 
Q 997 2584 770 2862 
Q 544 3141 544 3541 
Q 544 4100 942 4425 
Q 1341 4750 2034 4750 
Q 2731 4750 3128 4425 
Q 3525 4100 3525 3541 
Q 3525 3141 3298 2862 
Q 3072 2584 2669 2484 
Q 3125 2378 3379 2068 
Q 3634 1759 3634 1313 
Q 3634 634 3220 271 
Q 2806 -91 2034 -91 
Q 1263 -91 848 271 
Q 434 634 434 1313 
Q 434 1759 690 2068 
Q 947 2378 1403 2484 
z
M 1172 3481 
Q 1172 3119 1398 2916 
Q 1625 2713 2034 2713 
Q 2441 2713 2670 2916 
Q 2900 3119 2900 3481 
Q 2900 3844 2670 4047 
Q 2441 4250 2034 4250 
Q 1625 4250 1398 4047 
Q 1172 3844 1172 3481 
z
" transform="scale(0.015625)"/>
       </defs>
       <use xlink:href="#DejaVuSans-30"/>
       <use xlink:href="#DejaVuSans-2e" x="63.623047"/>
       <use xlink:href="#DejaVuSans-38" x="95.410156"/>
      </g>
     </g>
    </g>
    <g id="ytick_8">
     <g id="line2d_17">
      <g>
       <use xlink:href="#mc860d66e33" x="57.6" y="67.712478" style="stroke: #000000; stroke-width: 0.8"/>
      </g>
     </g>
     <g id="text_17">
      <!-- 1.0 -->
      <g transform="translate(34.696875 71.511696) scale(0.1 -0.1)">
       <use xlink:href="#DejaVuSans-31"/>
       <use xlink:href="#DejaVuSans-2e" x="63.623047"/>
       <use xlink:href="#DejaVuSans-30" x="95.410156"/>
      </g>
     </g>
    </g>
   </g>
   <g id="line2d_18">
    <path d="M 73.832727 263.829436 
L 75.464157 243.483501 
L 77.095587 189.266335 
L 78.727017 206.033831 
L 80.358447 176.72379 
L 81.989877 169.143802 
L 85.252736 172.994198 
L 86.884166 192.320981 
L 88.515596 200.638343 
L 90.147026 194.152882 
L 91.778456 247.422821 
L 95.041316 228.571973 
L 96.672746 188.10053 
L 98.304175 196.070375 
L 99.935605 148.929325 
L 101.567035 190.368297 
L 103.198465 192.842241 
L 104.829895 178.701929 
L 106.461325 258.325367 
L 108.092755 203.416206 
L 109.724185 165.591759 
L 111.355614 150.715764 
L 112.987044 139.025692 
L 114.618474 154.005662 
L 117.881334 95.902389 
L 119.512764 99.614137 
L 121.144194 106.331299 
L 122.775624 121.710807 
L 124.407053 161.427336 
L 126.038483 109.335711 
L 127.669913 200.826078 
L 129.301343 187.664986 
L 130.932773 179.928376 
L 132.564203 158.37062 
L 134.195633 112.656439 
L 135.827063 104.224448 
L 137.458492 127.653871 
L 139.089922 101.643162 
L 140.721352 156.205589 
L 142.352782 96.647441 
L 143.984212 123.900052 
L 145.615642 147.757058 
L 147.247072 161.792361 
L 148.878502 159.986002 
L 152.141361 98.153039 
L 153.772791 153.891992 
L 157.035651 145.907383 
L 158.667081 149.81551 
L 160.298511 150.620093 
L 163.56137 185.167195 
L 165.1928 208.405663 
L 168.45566 224.275485 
L 170.08709 196.897448 
L 171.71852 228.424329 
L 173.34995 238.570661 
L 174.98138 241.873629 
L 176.61281 254.265175 
L 178.244239 295.488 
L 179.875669 231.917276 
L 181.507099 235.645605 
L 183.138529 263.79232 
L 184.769959 242.219481 
L 186.401389 260.773852 
L 188.032819 261.9006 
L 189.664249 246.209589 
L 191.295678 219.644967 
L 194.558538 144.115079 
L 196.189968 173.490516 
L 197.821398 186.194001 
L 199.452828 177.811171 
L 201.084258 177.953595 
L 202.715688 205.458842 
L 204.347117 217.43462 
L 205.978547 184.561769 
L 207.609977 143.451961 
L 209.241407 172.943978 
L 210.872837 190.875526 
L 212.504267 192.957653 
L 214.135697 224.945982 
L 215.767127 222.801893 
L 217.398556 206.952246 
L 219.029986 216.602044 
L 220.661416 175.124585 
L 222.292846 186.551584 
L 223.924276 173.189793 
L 225.555706 184.507382 
L 227.187136 141.14687 
L 228.818566 199.732309 
L 230.449995 195.090107 
L 232.081425 231.106894 
L 233.712855 191.925136 
L 235.344285 176.168568 
L 236.975715 205.254204 
L 238.607145 143.663384 
L 240.238575 176.434466 
L 241.870005 219.173371 
L 243.501434 210.759175 
L 245.132864 198.675238 
L 246.764294 213.059571 
L 248.395724 135.966802 
L 250.027154 138.274414 
L 251.658584 93.142648 
L 253.290014 70.241325 
L 254.921444 146.031819 
L 256.552873 138.4356 
L 258.184303 227.511166 
L 259.815733 218.457393 
L 261.447163 176.853113 
L 263.078593 222.660734 
L 264.710023 232.076165 
L 266.341453 213.488764 
L 269.604312 216.321055 
L 271.235742 219.632542 
L 272.867172 190.358189 
L 274.498602 194.007874 
L 276.130032 206.871399 
L 277.761462 192.93405 
L 279.392892 195.958435 
L 281.024322 189.72963 
L 282.655751 128.161421 
L 284.287181 165.491305 
L 285.918611 179.554929 
L 287.550041 127.203842 
L 289.181471 172.440717 
L 290.812901 108.474196 
L 295.70719 115.202587 
L 297.33862 89.060366 
L 298.97005 74.844066 
L 300.60148 96.931944 
L 302.23291 109.347133 
L 303.86434 97.519503 
L 305.49577 102.702238 
L 307.1272 129.539512 
L 308.75863 111.273715 
L 310.390059 88.438363 
L 312.021489 99.955054 
L 313.652919 53.568 
L 315.284349 64.109845 
L 316.915779 78.527599 
L 318.547209 76.791237 
L 320.178639 102.030728 
L 321.810069 133.611412 
L 323.441498 109.32148 
L 325.072928 148.710955 
L 326.704358 153.222552 
L 328.335788 154.536328 
L 329.967218 144.860096 
L 331.598648 137.343407 
L 333.230078 143.871129 
L 334.861508 209.95824 
L 336.492937 194.014061 
L 338.124367 220.252566 
L 339.755797 216.86902 
L 341.387227 183.696465 
L 343.018657 171.677998 
L 344.650087 174.974992 
L 346.281517 161.284775 
L 347.912947 217.993136 
L 349.544376 193.805543 
L 351.175806 178.032157 
L 352.807236 211.764513 
L 354.438666 189.257774 
L 356.070096 208.341372 
L 359.332956 149.670725 
L 360.964386 182.796735 
L 364.227245 155.259011 
L 365.858675 87.486145 
L 367.490105 131.774062 
L 369.121535 125.946147 
L 370.752965 121.850824 
L 372.384395 153.931659 
L 374.015825 203.486791 
L 375.647254 210.515534 
L 377.278684 168.79393 
L 380.541544 203.473198 
L 382.172974 150.013907 
L 383.804404 155.946322 
L 385.435834 139.993136 
L 387.067264 121.740212 
L 388.698693 164.922933 
L 390.330123 150.875908 
L 391.961553 150.583374 
L 393.592983 161.335473 
L 395.224413 196.898632 
L 396.855843 169.916677 
L 398.487273 233.187464 
L 398.487273 233.187464 
" clip-path="url(#p850070d94b)" style="fill: none; stroke: #1f77b4; stroke-width: 1.5; stroke-linecap: square"/>
   </g>
   <g id="line2d_19">
    <path d="M 78.727017 198.765587 
L 80.358447 195.301968 
L 81.989877 182.767312 
L 85.252736 171.176735 
L 86.884166 171.685883 
L 88.515596 183.791349 
L 90.147026 193.274724 
L 91.778456 191.475254 
L 95.041316 220.533986 
L 96.672746 222.694532 
L 98.304175 194.537077 
L 99.935605 189.350551 
L 101.567035 164.336478 
L 104.829895 188.42327 
L 106.461325 180.685436 
L 108.092755 223.083429 
L 109.724185 210.938147 
L 111.355614 175.38933 
L 112.987044 157.862268 
L 114.618474 147.683188 
L 117.881334 153.531446 
L 119.512764 123.775957 
L 121.144194 111.677749 
L 122.775624 116.727698 
L 124.407053 127.20497 
L 126.038483 153.795911 
L 127.669913 133.404193 
L 129.301343 173.207487 
L 130.932773 188.179433 
L 132.564203 180.079877 
L 134.195633 165.84086 
L 135.827063 134.294434 
L 137.458492 118.396512 
L 139.089922 130.05203 
L 140.721352 120.823701 
L 142.352782 145.794959 
L 143.984212 124.919263 
L 145.615642 125.835718 
L 147.247072 146.502677 
L 148.878502 160.272161 
L 152.141361 162.539869 
L 153.772791 126.421713 
L 157.035651 143.457801 
L 158.667081 152.74177 
L 160.298511 152.780766 
L 163.56137 154.234879 
L 165.1928 174.30888 
L 168.45566 196.110609 
L 170.08709 210.751128 
L 171.71852 198.741698 
L 173.34995 210.148911 
L 174.98138 223.808429 
L 176.61281 228.034146 
L 178.244239 235.927637 
L 179.875669 262.673923 
L 181.507099 236.052562 
L 183.138529 222.506138 
L 184.769959 239.927913 
L 186.401389 234.347577 
L 189.664249 244.91524 
L 191.295678 236.064812 
L 192.927108 216.935081 
L 194.558538 188.475255 
L 196.189968 157.823636 
L 197.821398 165.848157 
L 199.452828 180.502792 
L 202.715688 176.609999 
L 204.347117 192.525508 
L 205.978547 206.127265 
L 207.609977 189.983638 
L 209.241407 158.236732 
L 210.872837 165.356421 
L 212.504267 183.068907 
L 214.135697 188.499103 
L 215.767127 207.344153 
L 217.398556 213.897627 
L 219.029986 204.094528 
L 220.661416 205.798393 
L 222.292846 184.338476 
L 223.924276 180.762115 
L 225.555706 176.049864 
L 227.187136 179.256157 
L 228.818566 157.106487 
L 230.449995 180.222743 
L 232.081425 192.037692 
L 233.712855 211.370066 
L 235.344285 197.606783 
L 236.975715 178.808961 
L 238.607145 191.905322 
L 240.238575 163.599352 
L 241.870005 167.319735 
L 243.501434 200.216191 
L 245.132864 205.633325 
L 246.764294 196.419274 
L 248.395724 201.797721 
L 250.027154 160.962421 
L 251.658584 143.429056 
L 254.921444 94.163372 
L 256.552873 132.444663 
L 258.184303 146.65526 
L 259.815733 195.743363 
L 261.447163 212.280358 
L 263.078593 185.688434 
L 266.341453 218.758429 
L 269.604312 210.130843 
L 271.235742 207.18592 
L 272.867172 209.872005 
L 274.498602 193.806049 
L 276.130032 188.755633 
L 277.761462 197.19308 
L 279.392892 192.284786 
L 281.024322 190.567688 
L 282.655751 187.784003 
L 284.287181 150.79261 
L 285.918611 157.312089 
L 287.550041 174.805054 
L 289.181471 147.905696 
L 290.812901 161.129393 
L 295.70719 135.566761 
L 297.33862 123.632548 
L 298.97005 110.521346 
L 300.60148 95.928805 
L 302.23291 105.308434 
L 303.86434 117.910931 
L 305.49577 114.020625 
L 307.1272 114.063018 
L 308.75863 130.838963 
L 310.390059 126.837086 
L 312.021489 109.105076 
L 313.652919 110.257855 
L 315.284349 86.458754 
L 316.915779 81.166852 
L 318.547209 92.261048 
L 320.178639 94.725673 
L 321.810069 108.769754 
L 323.441498 133.119008 
L 325.072928 126.708606 
L 326.704358 143.322122 
L 328.335788 155.63854 
L 329.967218 157.307564 
L 331.598648 152.033608 
L 333.230078 145.339424 
L 334.861508 147.312495 
L 336.492937 187.000676 
L 338.124367 193.897917 
L 339.755797 204.807825 
L 341.387227 209.331549 
L 343.018657 189.277001 
L 344.650087 174.28449 
L 346.281517 173.411277 
L 347.912947 166.387721 
L 349.544376 195.694212 
L 351.175806 195.653724 
L 352.807236 180.403065 
L 354.438666 196.100118 
L 356.070096 191.436425 
L 359.332956 196.779801 
L 360.964386 167.749422 
L 364.227245 172.433706 
L 365.858675 164.928891 
L 367.490105 119.026085 
L 369.121535 128.141673 
L 370.752965 135.904431 
L 372.384395 131.914323 
L 374.015825 149.419765 
L 375.647254 185.799941 
L 377.278684 201.775978 
L 380.541544 179.225213 
L 382.172974 188.993314 
L 383.804404 166.857679 
L 385.435834 157.076777 
L 387.067264 149.58962 
L 388.698693 135.159998 
L 390.330123 155.656072 
L 391.961553 158.180158 
L 393.592983 154.381741 
L 395.224413 160.569655 
L 396.855843 183.673853 
L 398.487273 176.752862 
L 398.487273 176.752862 
" clip-path="url(#p850070d94b)" style="fill: none; stroke: #ff7f0e; stroke-width: 1.5; stroke-linecap: square"/>
   </g>
   <g id="patch_3">
    <path d="M 57.6 307.584 
L 57.6 41.472 
" style="fill: none; stroke: #000000; stroke-width: 0.8; stroke-linejoin: miter; stroke-linecap: square"/>
   </g>
   <g id="patch_4">
    <path d="M 414.72 307.584 
L 414.72 41.472 
" style="fill: none; stroke: #000000; stroke-width: 0.8; stroke-linejoin: miter; stroke-linecap: square"/>
   </g>
   <g id="patch_5">
    <path d="M 57.6 307.584 
L 414.72 307.584 
" style="fill: none; stroke: #000000; stroke-width: 0.8; stroke-linejoin: miter; stroke-linecap: square"/>
   </g>
   <g id="patch_6">
    <path d="M 57.6 41.472 
L 414.72 41.472 
" style="fill: none; stroke: #000000; stroke-width: 0.8; stroke-linejoin: miter; stroke-linecap: square"/>
   </g>
   <g id="legend_1">
    <g id="patch_7">
     <path d="M 325.31375 78.82825 
L 407.72 78.82825 
Q 409.72 78.82825 409.72 76.82825 
L 409.72 48.472 
Q 409.72 46.472 407.72 46.472 
L 325.31375 46.472 
Q 323.31375 46.472 323.31375 48.472 
L 323.31375 76.82825 
Q 323.31375 78.82825 325.31375 78.82825 
z
" style="fill: #ffffff; opacity: 0.8; stroke: #cccccc; stroke-linejoin: miter"/>
    </g>
    <g id="line2d_20">
     <path d="M 327.31375 54.570437 
L 337.31375 54.570437 
L 347.31375 54.570437 
" style="fill: none; stroke: #1f77b4; stroke-width: 1.5; stroke-linecap: square"/>
    </g>
    <g id="text_18">
     <!-- Original -->
     <g transform="translate(355.31375 58.070437) scale(0.1 -0.1)">
      <defs>
       <path id="DejaVuSans-4f" d="M 2522 4238 
Q 1834 4238 1429 3725 
Q 1025 3213 1025 2328 
Q 1025 1447 1429 934 
Q 1834 422 2522 422 
Q 3209 422 3611 934 
Q 4013 1447 4013 2328 
Q 4013 3213 3611 3725 
Q 3209 4238 2522 4238 
z
M 2522 4750 
Q 3503 4750 4090 4092 
Q 4678 3434 4678 2328 
Q 4678 1225 4090 567 
Q 3503 -91 2522 -91 
Q 1538 -91 948 565 
Q 359 1222 359 2328 
Q 359 3434 948 4092 
Q 1538 4750 2522 4750 
z
" transform="scale(0.015625)"/>
       <path id="DejaVuSans-72" d="M 2631 2963 
Q 2534 3019 2420 3045 
Q 2306 3072 2169 3072 
Q 1681 3072 1420 2755 
Q 1159 2438 1159 1844 
L 1159 0 
L 581 0 
L 581 3500 
L 1159 3500 
L 1159 2956 
Q 1341 3275 1631 3429 
Q 1922 3584 2338 3584 
Q 2397 3584 2469 3576 
Q 2541 3569 2628 3553 
L 2631 2963 
z
" transform="scale(0.015625)"/>
       <path id="DejaVuSans-69" d="M 603 3500 
L 1178 3500 
L 1178 0 
L 603 0 
L 603 3500 
z
M 603 4863 
L 1178 4863 
L 1178 4134 
L 603 4134 
L 603 4863 
z
" transform="scale(0.015625)"/>
       <path id="DejaVuSans-67" d="M 2906 1791 
Q 2906 2416 2648 2759 
Q 2391 3103 1925 3103 
Q 1463 3103 1205 2759 
Q 947 2416 947 1791 
Q 947 1169 1205 825 
Q 1463 481 1925 481 
Q 2391 481 2648 825 
Q 2906 1169 2906 1791 
z
M 3481 434 
Q 3481 -459 3084 -895 
Q 2688 -1331 1869 -1331 
Q 1566 -1331 1297 -1286 
Q 1028 -1241 775 -1147 
L 775 -588 
Q 1028 -725 1275 -790 
Q 1522 -856 1778 -856 
Q 2344 -856 2625 -561 
Q 2906 -266 2906 331 
L 2906 616 
Q 2728 306 2450 153 
Q 2172 0 1784 0 
Q 1141 0 747 490 
Q 353 981 353 1791 
Q 353 2603 747 3093 
Q 1141 3584 1784 3584 
Q 2172 3584 2450 3431 
Q 2728 3278 2906 2969 
L 2906 3500 
L 3481 3500 
L 3481 434 
z
" transform="scale(0.015625)"/>
       <path id="DejaVuSans-6e" d="M 3513 2113 
L 3513 0 
L 2938 0 
L 2938 2094 
Q 2938 2591 2744 2837 
Q 2550 3084 2163 3084 
Q 1697 3084 1428 2787 
Q 1159 2491 1159 1978 
L 1159 0 
L 581 0 
L 581 3500 
L 1159 3500 
L 1159 2956 
Q 1366 3272 1645 3428 
Q 1925 3584 2291 3584 
Q 2894 3584 3203 3211 
Q 3513 2838 3513 2113 
z
" transform="scale(0.015625)"/>
       <path id="DejaVuSans-61" d="M 2194 1759 
Q 1497 1759 1228 1600 
Q 959 1441 959 1056 
Q 959 750 1161 570 
Q 1363 391 1709 391 
Q 2188 391 2477 730 
Q 2766 1069 2766 1631 
L 2766 1759 
L 2194 1759 
z
M 3341 1997 
L 3341 0 
L 2766 0 
L 2766 531 
Q 2569 213 2275 61 
Q 1981 -91 1556 -91 
Q 1019 -91 701 211 
Q 384 513 384 1019 
Q 384 1609 779 1909 
Q 1175 2209 1959 2209 
L 2766 2209 
L 2766 2266 
Q 2766 2663 2505 2880 
Q 2244 3097 1772 3097 
Q 1472 3097 1187 3025 
Q 903 2953 641 2809 
L 641 3341 
Q 956 3463 1253 3523 
Q 1550 3584 1831 3584 
Q 2591 3584 2966 3190 
Q 3341 2797 3341 1997 
z
" transform="scale(0.015625)"/>
       <path id="DejaVuSans-6c" d="M 603 4863 
L 1178 4863 
L 1178 0 
L 603 0 
L 603 4863 
z
" transform="scale(0.015625)"/>
      </defs>
      <use xlink:href="#DejaVuSans-4f"/>
      <use xlink:href="#DejaVuSans-72" x="78.710938"/>
      <use xlink:href="#DejaVuSans-69" x="119.824219"/>
      <use xlink:href="#DejaVuSans-67" x="147.607422"/>
      <use xlink:href="#DejaVuSans-69" x="211.083984"/>
      <use xlink:href="#DejaVuSans-6e" x="238.867188"/>
      <use xlink:href="#DejaVuSans-61" x="302.246094"/>
      <use xlink:href="#DejaVuSans-6c" x="363.525391"/>
     </g>
    </g>
    <g id="line2d_21">
     <path d="M 327.31375 69.248562 
L 337.31375 69.248562 
L 347.31375 69.248562 
" style="fill: none; stroke: #ff7f0e; stroke-width: 1.5; stroke-linecap: square"/>
    </g>
    <g id="text_19">
     <!-- De-noised -->
     <g transform="translate(355.31375 72.748562) scale(0.1 -0.1)">
      <defs>
       <path id="DejaVuSans-44" d="M 1259 4147 
L 1259 519 
L 2022 519 
Q 2988 519 3436 956 
Q 3884 1394 3884 2338 
Q 3884 3275 3436 3711 
Q 2988 4147 2022 4147 
L 1259 4147 
z
M 628 4666 
L 1925 4666 
Q 3281 4666 3915 4102 
Q 4550 3538 4550 2338 
Q 4550 1131 3912 565 
Q 3275 0 1925 0 
L 628 0 
L 628 4666 
z
" transform="scale(0.015625)"/>
       <path id="DejaVuSans-65" d="M 3597 1894 
L 3597 1613 
L 953 1613 
Q 991 1019 1311 708 
Q 1631 397 2203 397 
Q 2534 397 2845 478 
Q 3156 559 3463 722 
L 3463 178 
Q 3153 47 2828 -22 
Q 2503 -91 2169 -91 
Q 1331 -91 842 396 
Q 353 884 353 1716 
Q 353 2575 817 3079 
Q 1281 3584 2069 3584 
Q 2775 3584 3186 3129 
Q 3597 2675 3597 1894 
z
M 3022 2063 
Q 3016 2534 2758 2815 
Q 2500 3097 2075 3097 
Q 1594 3097 1305 2825 
Q 1016 2553 972 2059 
L 3022 2063 
z
" transform="scale(0.015625)"/>
       <path id="DejaVuSans-2d" d="M 313 2009 
L 1997 2009 
L 1997 1497 
L 313 1497 
L 313 2009 
z
" transform="scale(0.015625)"/>
       <path id="DejaVuSans-6f" d="M 1959 3097 
Q 1497 3097 1228 2736 
Q 959 2375 959 1747 
Q 959 1119 1226 758 
Q 1494 397 1959 397 
Q 2419 397 2687 759 
Q 2956 1122 2956 1747 
Q 2956 2369 2687 2733 
Q 2419 3097 1959 3097 
z
M 1959 3584 
Q 2709 3584 3137 3096 
Q 3566 2609 3566 1747 
Q 3566 888 3137 398 
Q 2709 -91 1959 -91 
Q 1206 -91 779 398 
Q 353 888 353 1747 
Q 353 2609 779 3096 
Q 1206 3584 1959 3584 
z
" transform="scale(0.015625)"/>
       <path id="DejaVuSans-73" d="M 2834 3397 
L 2834 2853 
Q 2591 2978 2328 3040 
Q 2066 3103 1784 3103 
Q 1356 3103 1142 2972 
Q 928 2841 928 2578 
Q 928 2378 1081 2264 
Q 1234 2150 1697 2047 
L 1894 2003 
Q 2506 1872 2764 1633 
Q 3022 1394 3022 966 
Q 3022 478 2636 193 
Q 2250 -91 1575 -91 
Q 1294 -91 989 -36 
Q 684 19 347 128 
L 347 722 
Q 666 556 975 473 
Q 1284 391 1588 391 
Q 1994 391 2212 530 
Q 2431 669 2431 922 
Q 2431 1156 2273 1281 
Q 2116 1406 1581 1522 
L 1381 1569 
Q 847 1681 609 1914 
Q 372 2147 372 2553 
Q 372 3047 722 3315 
Q 1072 3584 1716 3584 
Q 2034 3584 2315 3537 
Q 2597 3491 2834 3397 
z
" transform="scale(0.015625)"/>
       <path id="DejaVuSans-64" d="M 2906 2969 
L 2906 4863 
L 3481 4863 
L 3481 0 
L 2906 0 
L 2906 525 
Q 2725 213 2448 61 
Q 2172 -91 1784 -91 
Q 1150 -91 751 415 
Q 353 922 353 1747 
Q 353 2572 751 3078 
Q 1150 3584 1784 3584 
Q 2172 3584 2448 3432 
Q 2725 3281 2906 2969 
z
M 947 1747 
Q 947 1113 1208 752 
Q 1469 391 1925 391 
Q 2381 391 2643 752 
Q 2906 1113 2906 1747 
Q 2906 2381 2643 2742 
Q 2381 3103 1925 3103 
Q 1469 3103 1208 2742 
Q 947 2381 947 1747 
z
" transform="scale(0.015625)"/>
      </defs>
      <use xlink:href="#DejaVuSans-44"/>
      <use xlink:href="#DejaVuSans-65" x="77.001953"/>
      <use xlink:href="#DejaVuSans-2d" x="138.525391"/>
      <use xlink:href="#DejaVuSans-6e" x="174.609375"/>
      <use xlink:href="#DejaVuSans-6f" x="237.988281"/>
      <use xlink:href="#DejaVuSans-69" x="299.169922"/>
      <use xlink:href="#DejaVuSans-73" x="326.953125"/>
      <use xlink:href="#DejaVuSans-65" x="379.052734"/>
      <use xlink:href="#DejaVuSans-64" x="440.576172"/>
     </g>
    </g>
   </g>
  </g>
 </g>
 <defs>
  <clipPath id="p850070d94b">
   <rect x="57.6" y="41.472" width="357.12" height="266.112"/>
  </clipPath>
 </defs>
</svg>
